<svg width="320" height="107" viewBox="0 0 320 107" fill="none" xmlns="http://www.w3.org/2000/svg">
<rect x="1.33333" y="1.66683" width="317.333" height="104" rx="14.6667" fill="black"/>
<rect x="1.33333" y="1.66683" width="317.333" height="104" rx="14.6667" stroke="#A6A6A6" stroke-width="2.66667"/>
<path d="M65.8783 55.7016C65.9107 53.2485 66.5781 50.8433 67.8185 48.7097C69.0588 46.5761 70.8318 44.7835 72.9725 43.4987C71.6126 41.6025 69.8186 40.0421 67.7329 38.9413C65.6472 37.8404 63.3274 37.2296 60.9576 37.1572C55.9025 36.6391 51.0018 40.1104 48.4257 40.1104C45.7998 40.1104 41.8337 37.2086 37.5628 37.2944C34.8002 37.3816 32.1079 38.1658 29.7482 39.5709C27.3884 40.9759 25.4417 42.9537 24.0976 45.3117C18.2757 55.1527 22.6184 69.6158 28.1954 77.5706C30.9857 81.4658 34.2467 85.8169 38.5138 85.6626C42.6894 85.4935 44.2489 83.0631 49.2891 83.0631C54.2826 83.0631 55.7457 85.6626 60.0993 85.5645C64.5799 85.4935 67.4029 81.652 70.0953 77.7198C72.1002 74.9444 73.6429 71.8768 74.6663 68.6309C72.0632 67.556 69.8418 65.7568 68.2791 63.4576C66.7163 61.1584 65.8814 58.461 65.8783 55.7016Z" fill="white"/>
<path d="M57.6561 31.926C60.0991 29.0628 61.3027 25.3826 61.0113 21.667C57.2789 22.0497 53.8313 23.7912 51.3553 26.5446C50.1447 27.8897 49.2175 29.4545 48.6267 31.1497C48.0359 32.8448 47.7932 34.637 47.9123 36.4238C49.7791 36.4426 51.626 36.0475 53.3138 35.2684C55.0016 34.4893 56.4863 33.3465 57.6561 31.926Z" fill="white"/>
<path d="M98.1094 22.3374H103.629C108.398 22.3374 110.719 25.1968 110.719 30.3062C110.719 35.439 108.375 38.3335 103.629 38.3335H98.1094V22.3374ZM100.77 24.6694V36.0015H103.336C106.5 36.0015 107.988 34.1265 107.988 30.353C107.988 26.5679 106.488 24.6694 103.336 24.6694H100.77ZM119.133 25.7241C122.367 25.7241 124.629 27.8452 124.629 31.3374V32.8843C124.629 36.5054 122.367 38.5444 119.133 38.5444C115.852 38.5444 113.613 36.5288 113.613 32.8843V31.3491C113.613 27.939 115.887 25.7241 119.133 25.7241ZM119.145 27.9038C117.293 27.9038 116.238 29.439 116.238 31.4546V32.814C116.238 34.8296 117.223 36.3647 119.145 36.3647C121.043 36.3647 122.016 34.8413 122.016 32.814V31.4546C122.016 29.439 120.996 27.9038 119.145 27.9038ZM143.73 25.9351L140.473 38.3335H137.824L135.234 29.2749H135.164L132.621 38.3335H129.961L126.562 25.9351H129.363L131.355 35.2983H131.473L133.969 25.9351H136.418L138.984 35.2983H139.102L141.129 25.9351H143.73ZM146.309 38.3335V25.9351H148.863V28.1499H148.992C149.309 27.1772 150.211 25.7476 152.719 25.7476C155.215 25.7476 156.891 27.1304 156.891 29.978V38.3335H154.289V30.7632C154.289 28.8882 153.305 28.0562 151.84 28.0562C149.918 28.0562 148.91 29.4858 148.91 31.4546V38.3335H146.309ZM160.828 38.3335V21.4937H163.43V38.3335H160.828ZM172.383 25.7241C175.617 25.7241 177.879 27.8452 177.879 31.3374V32.8843C177.879 36.5054 175.617 38.5444 172.383 38.5444C169.102 38.5444 166.863 36.5288 166.863 32.8843V31.3491C166.863 27.939 169.137 25.7241 172.383 25.7241ZM172.395 27.9038C170.543 27.9038 169.488 29.439 169.488 31.4546V32.814C169.488 34.8296 170.473 36.3647 172.395 36.3647C174.293 36.3647 175.266 34.8413 175.266 32.814V31.4546C175.266 29.439 174.246 27.9038 172.395 27.9038ZM184.617 38.521C182.215 38.521 180.562 37.0562 180.562 34.7358C180.562 32.5327 182.086 31.0562 184.945 31.0562H188.074V29.9077C188.074 28.5366 187.172 27.8921 185.742 27.8921C184.336 27.8921 183.703 28.4663 183.504 29.2632H181.031C181.184 27.2124 182.742 25.7476 185.824 25.7476C188.473 25.7476 190.664 26.8491 190.664 29.9546V38.3335H188.191V36.7397H188.074C187.523 37.6772 186.445 38.521 184.617 38.521ZM185.426 36.4351C186.902 36.4351 188.074 35.4624 188.074 34.1499V32.8374H185.355C183.844 32.8374 183.176 33.5757 183.176 34.5835C183.176 35.8374 184.254 36.4351 185.426 36.4351ZM198.68 25.771C200.426 25.771 201.762 26.5444 202.242 27.7983H202.371V21.4937H204.973V38.3335H202.441V36.353H202.312C201.938 37.6069 200.449 38.4976 198.645 38.4976C195.797 38.4976 193.945 36.4585 193.945 33.1538V31.103C193.945 27.7983 195.832 25.771 198.68 25.771ZM199.406 27.9976C197.672 27.9976 196.594 29.2632 196.594 31.4663V32.7788C196.594 35.0171 197.684 36.271 199.465 36.271C201.223 36.271 202.371 35.0288 202.371 32.9429V31.1382C202.371 29.2397 201.117 27.9976 199.406 27.9976ZM219.258 25.7241C222.492 25.7241 224.754 27.8452 224.754 31.3374V32.8843C224.754 36.5054 222.492 38.5444 219.258 38.5444C215.977 38.5444 213.738 36.5288 213.738 32.8843V31.3491C213.738 27.939 216.012 25.7241 219.258 25.7241ZM219.27 27.9038C217.418 27.9038 216.363 29.439 216.363 31.4546V32.814C216.363 34.8296 217.348 36.3647 219.27 36.3647C221.168 36.3647 222.141 34.8413 222.141 32.814V31.4546C222.141 29.439 221.121 27.9038 219.27 27.9038ZM228.105 38.3335V25.9351H230.66V28.1499H230.789C231.105 27.1772 232.008 25.7476 234.516 25.7476C237.012 25.7476 238.688 27.1304 238.688 29.978V38.3335H236.086V30.7632C236.086 28.8882 235.102 28.0562 233.637 28.0562C231.715 28.0562 230.707 29.4858 230.707 31.4546V38.3335H228.105ZM248.754 26.0288V22.9351H251.297V26.0288H254.074V28.1499H251.297V34.5835C251.297 35.896 251.801 36.271 253.195 36.271C253.547 36.271 254.016 36.2476 254.215 36.2241V38.2983C254.004 38.3452 253.137 38.4155 252.551 38.4155C249.539 38.4155 248.719 37.3374 248.719 34.8413V28.1499H246.832V26.0288H248.754ZM257.355 38.3335V21.4937H259.945V28.1499H260.074C260.344 27.271 261.352 25.7476 263.836 25.7476C266.25 25.7476 267.973 27.1538 267.973 29.9897V38.3335H265.383V30.7749C265.383 28.9116 264.34 28.0562 262.863 28.0562C261 28.0562 259.945 29.4741 259.945 31.4546V38.3335H257.355ZM276.703 38.5444C273.328 38.5444 271.23 36.4819 271.23 32.9429V31.3257C271.23 27.7632 273.527 25.7241 276.551 25.7241C279.656 25.7241 281.848 27.8804 281.848 31.3257V32.7671H273.809V33.3765C273.809 35.1108 274.863 36.3882 276.691 36.3882C278.051 36.3882 278.988 35.7437 279.164 34.9702H281.707C281.555 36.4351 280.043 38.5444 276.703 38.5444ZM273.809 31.021H279.305V30.8687C279.305 29.0522 278.215 27.8452 276.562 27.8452C274.91 27.8452 273.809 29.0522 273.809 30.8687V31.021Z" fill="white"/>
<path d="M101.883 82.3335H96.4688L107.484 50.3413H113.438L124.43 82.3335H118.805L115.969 73.4741H104.742L101.883 82.3335ZM110.484 55.8726H110.273L105.938 69.396H114.773L110.484 55.8726ZM139.372 82.6851C136.161 82.6851 133.723 81.1616 132.411 78.8882H132.223V90.5601H127.02V57.5601H132.083V61.1929H132.27C133.629 58.8257 136.161 57.2319 139.489 57.2319C145.044 57.2319 149.004 61.4272 149.004 68.8335V71.0366C149.004 78.396 145.09 82.6851 139.372 82.6851ZM138.176 78.396C141.481 78.396 143.731 75.7476 143.731 70.7554V69.021C143.731 64.2163 141.622 61.4741 138.083 61.4741C134.45 61.4741 132.176 64.4272 132.176 68.9976V70.7554C132.176 75.4429 134.473 78.396 138.176 78.396ZM165.821 82.6851C162.611 82.6851 160.173 81.1616 158.861 78.8882H158.673V90.5601H153.47V57.5601H158.532V61.1929H158.72C160.079 58.8257 162.611 57.2319 165.939 57.2319C171.493 57.2319 175.454 61.4272 175.454 68.8335V71.0366C175.454 78.396 171.54 82.6851 165.821 82.6851ZM164.626 78.396C167.931 78.396 170.181 75.7476 170.181 70.7554V69.021C170.181 64.2163 168.071 61.4741 164.532 61.4741C160.9 61.4741 158.626 64.4272 158.626 68.9976V70.7554C158.626 75.4429 160.923 78.396 164.626 78.396ZM186.237 73.4507H191.44C191.674 76.2163 194.112 78.5835 198.635 78.5835C202.784 78.5835 205.244 76.6382 205.244 73.6147C205.244 71.1772 203.604 69.8647 200.182 69.0444L194.932 67.7319C190.807 66.771 187.104 64.3101 187.104 59.1069C187.104 52.9897 192.448 49.6382 198.659 49.6382C204.869 49.6382 210.049 52.9897 210.166 58.9663H205.057C204.823 56.2476 202.737 53.9976 198.588 53.9976C194.932 53.9976 192.448 55.7319 192.448 58.7085C192.448 60.7944 193.901 62.2944 196.877 62.9741L202.104 64.2632C206.909 65.4351 210.565 67.7085 210.565 73.146C210.565 79.4272 205.479 82.9663 198.237 82.9663C189.33 82.9663 186.354 77.7632 186.237 73.4507ZM216.905 57.5601V51.5366H222.015V57.5601H226.843V61.7319H222.015V74.9507C222.015 77.646 223.022 78.396 225.811 78.396C226.257 78.396 226.679 78.396 226.983 78.3491V82.3335C226.561 82.4038 225.577 82.4976 224.522 82.4976C218.499 82.4976 216.835 80.3413 216.835 75.3726V61.7319H213.413V57.5601H216.905ZM240.894 57.1382C248.019 57.1382 251.886 62.1538 251.886 68.9038V70.896C251.886 77.8804 248.042 82.7554 240.894 82.7554C233.746 82.7554 229.855 77.8804 229.855 70.896V68.9038C229.855 62.1772 233.769 57.1382 240.894 57.1382ZM240.894 61.3101C237.027 61.3101 235.105 64.4741 235.105 68.9741V70.8726C235.105 75.3022 237.003 78.5601 240.894 78.5601C244.785 78.5601 246.66 75.3257 246.66 70.8726V68.9741C246.66 64.4507 244.761 61.3101 240.894 61.3101ZM256.281 82.3335V57.5601H261.484V60.8179H261.672C262.305 59.271 264.156 57.2085 267.602 57.2085C268.281 57.2085 268.867 57.2554 269.359 57.3491V61.9429C268.914 61.8257 268 61.7554 267.133 61.7554C262.961 61.7554 261.555 64.3335 261.555 67.6616V82.3335H256.281ZM281.981 82.7554C275.348 82.7554 271.13 78.3726 271.13 71.0366V68.5288C271.13 61.6147 275.255 57.1382 281.77 57.1382C288.38 57.1382 292.364 61.7788 292.364 68.7632V71.1304H276.262V71.7163C276.262 75.8882 278.512 78.6538 282.051 78.6538C284.7 78.6538 286.505 77.3413 287.137 75.2085H292.083C291.333 79.2163 288.098 82.7554 281.981 82.7554ZM276.262 67.4976H287.278V67.4507C287.278 63.9351 285.098 61.1694 281.794 61.1694C278.442 61.1694 276.262 63.9351 276.262 67.4507V67.4976Z" fill="white"/>
</svg>
