<svg width="120" height="41" viewBox="0 0 120 41" fill="none" xmlns="http://www.w3.org/2000/svg">
<rect x="0.5" y="1.16699" width="119" height="39" rx="5.5" fill="white"/>
<rect x="0.5" y="1.16699" width="119" height="39" rx="5.5" stroke="black"/>
<path d="M24.7045 21.43C24.7166 20.5101 24.9669 19.6081 25.4321 18.808C25.8972 18.0079 26.5621 17.3357 27.3648 16.8539C26.8548 16.1428 26.1821 15.5576 25.4 15.1448C24.6178 14.732 23.7479 14.503 22.8592 14.4758C20.9635 14.2816 19.1258 15.5833 18.1598 15.5833C17.1751 15.5833 15.6878 14.4951 14.0862 14.5273C13.0502 14.56 12.0406 14.8541 11.1557 15.3809C10.2708 15.9078 9.54075 16.6495 9.03674 17.5337C6.85352 21.2241 8.48201 26.6478 10.5734 29.6308C11.6197 31.0916 12.8426 32.7232 14.4428 32.6653C16.0086 32.6019 16.5934 31.6905 18.4835 31.6905C20.3561 31.6905 20.9048 32.6653 22.5374 32.6286C24.2176 32.6019 25.2762 31.1614 26.2859 29.6868C27.0377 28.646 27.6162 27.4957 28 26.2785C27.0238 25.8754 26.1908 25.2007 25.6048 24.3385C25.0187 23.4763 24.7056 22.4647 24.7045 21.43Z" fill="black"/>
<path d="M21.621 12.5141C22.5372 11.4404 22.9885 10.0603 22.8792 8.66699C21.4796 8.81051 20.1867 9.46359 19.2582 10.4961C18.8043 11.0005 18.4566 11.5873 18.235 12.223C18.0135 12.8587 17.9224 13.5307 17.9671 14.2008C18.6672 14.2078 19.3597 14.0597 19.9927 13.7675C20.6256 13.4754 21.1824 13.0468 21.621 12.5141Z" fill="black"/>
<path d="M36.791 9.16846H38.8608C40.6494 9.16846 41.5195 10.2407 41.5195 12.1567C41.5195 14.0815 40.6406 15.167 38.8608 15.167H36.791V9.16846ZM37.7886 10.043V14.2925H38.751C39.9375 14.2925 40.4956 13.5894 40.4956 12.1743C40.4956 10.7549 39.9331 10.043 38.751 10.043H37.7886ZM44.6748 10.4385C45.8877 10.4385 46.7358 11.2339 46.7358 12.5435V13.1235C46.7358 14.4814 45.8877 15.2461 44.6748 15.2461C43.4443 15.2461 42.605 14.4902 42.605 13.1235V12.5479C42.605 11.269 43.4575 10.4385 44.6748 10.4385ZM44.6792 11.2559C43.9849 11.2559 43.5894 11.8315 43.5894 12.5874V13.0972C43.5894 13.853 43.9585 14.4287 44.6792 14.4287C45.3911 14.4287 45.7559 13.8574 45.7559 13.0972V12.5874C45.7559 11.8315 45.3735 11.2559 44.6792 11.2559ZM53.8989 10.5176L52.6772 15.167H51.6841L50.7129 11.77H50.6865L49.7329 15.167H48.7354L47.4609 10.5176H48.5112L49.2583 14.0288H49.3022L50.2383 10.5176H51.1567L52.1191 14.0288H52.1631L52.9233 10.5176H53.8989ZM54.8657 15.167V10.5176H55.8237V11.3481H55.8721C55.9907 10.9834 56.3291 10.4473 57.2695 10.4473C58.2056 10.4473 58.834 10.9658 58.834 12.0337V15.167H57.8584V12.3281C57.8584 11.625 57.4893 11.313 56.9399 11.313C56.2192 11.313 55.8413 11.8491 55.8413 12.5874V15.167H54.8657ZM60.3105 15.167V8.85205H61.2861V15.167H60.3105ZM64.6436 10.4385C65.8564 10.4385 66.7046 11.2339 66.7046 12.5435V13.1235C66.7046 14.4814 65.8564 15.2461 64.6436 15.2461C63.4131 15.2461 62.5737 14.4902 62.5737 13.1235V12.5479C62.5737 11.269 63.4263 10.4385 64.6436 10.4385ZM64.6479 11.2559C63.9536 11.2559 63.5581 11.8315 63.5581 12.5874V13.0972C63.5581 13.853 63.9272 14.4287 64.6479 14.4287C65.3599 14.4287 65.7246 13.8574 65.7246 13.0972V12.5874C65.7246 11.8315 65.3423 11.2559 64.6479 11.2559ZM69.2314 15.2373C68.3306 15.2373 67.7109 14.688 67.7109 13.8179C67.7109 12.9917 68.2822 12.438 69.3545 12.438H70.5278V12.0073C70.5278 11.4932 70.1895 11.2515 69.6533 11.2515C69.126 11.2515 68.8887 11.4668 68.814 11.7656H67.8867C67.9438 10.9966 68.5283 10.4473 69.6841 10.4473C70.6772 10.4473 71.499 10.8604 71.499 12.0249V15.167H70.5718V14.5693H70.5278C70.3213 14.9209 69.917 15.2373 69.2314 15.2373ZM69.5347 14.4551C70.0884 14.4551 70.5278 14.0903 70.5278 13.5981V13.106H69.5083C68.9414 13.106 68.6909 13.3828 68.6909 13.7607C68.6909 14.231 69.0952 14.4551 69.5347 14.4551ZM74.5049 10.4561C75.1597 10.4561 75.6606 10.7461 75.8408 11.2163H75.8892V8.85205H76.8647V15.167H75.9155V14.4243H75.8672C75.7266 14.8945 75.1685 15.2285 74.4917 15.2285C73.4238 15.2285 72.7295 14.4639 72.7295 13.2246V12.4556C72.7295 11.2163 73.437 10.4561 74.5049 10.4561ZM74.7773 11.291C74.127 11.291 73.7227 11.7656 73.7227 12.5918V13.084C73.7227 13.9233 74.1313 14.3936 74.7993 14.3936C75.4585 14.3936 75.8892 13.9277 75.8892 13.1455V12.4688C75.8892 11.7568 75.4189 11.291 74.7773 11.291ZM82.2217 10.4385C83.4346 10.4385 84.2827 11.2339 84.2827 12.5435V13.1235C84.2827 14.4814 83.4346 15.2461 82.2217 15.2461C80.9912 15.2461 80.1519 14.4902 80.1519 13.1235V12.5479C80.1519 11.269 81.0044 10.4385 82.2217 10.4385ZM82.2261 11.2559C81.5317 11.2559 81.1362 11.8315 81.1362 12.5874V13.0972C81.1362 13.853 81.5054 14.4287 82.2261 14.4287C82.938 14.4287 83.3027 13.8574 83.3027 13.0972V12.5874C83.3027 11.8315 82.9204 11.2559 82.2261 11.2559ZM85.5396 15.167V10.5176H86.4976V11.3481H86.5459C86.6646 10.9834 87.0029 10.4473 87.9434 10.4473C88.8794 10.4473 89.5078 10.9658 89.5078 12.0337V15.167H88.5322V12.3281C88.5322 11.625 88.1631 11.313 87.6138 11.313C86.8931 11.313 86.5151 11.8491 86.5151 12.5874V15.167H85.5396ZM93.2827 10.5527V9.39258H94.2363V10.5527H95.2778V11.3481H94.2363V13.7607C94.2363 14.2529 94.4253 14.3936 94.9482 14.3936C95.0801 14.3936 95.2559 14.3848 95.3306 14.376V15.1538C95.2515 15.1714 94.9263 15.1978 94.7065 15.1978C93.5771 15.1978 93.2695 14.7935 93.2695 13.8574V11.3481H92.562V10.5527H93.2827ZM96.5083 15.167V8.85205H97.4795V11.3481H97.5278C97.6289 11.0186 98.0068 10.4473 98.9385 10.4473C99.8438 10.4473 100.49 10.9746 100.49 12.0381V15.167H99.5186V12.3325C99.5186 11.6338 99.1274 11.313 98.5737 11.313C97.875 11.313 97.4795 11.8447 97.4795 12.5874V15.167H96.5083ZM103.764 15.2461C102.498 15.2461 101.711 14.4727 101.711 13.1455V12.5391C101.711 11.2031 102.573 10.4385 103.707 10.4385C104.871 10.4385 105.693 11.2471 105.693 12.5391V13.0796H102.678V13.3081C102.678 13.9585 103.074 14.4375 103.759 14.4375C104.269 14.4375 104.621 14.1958 104.687 13.9058H105.64C105.583 14.4551 105.016 15.2461 103.764 15.2461ZM102.678 12.4248H104.739V12.3677C104.739 11.6865 104.331 11.2339 103.711 11.2339C103.091 11.2339 102.678 11.6865 102.678 12.3677V12.4248Z" fill="black"/>
<path d="M38.2061 31.167H36.1758L40.3066 19.1699H42.5391L46.6611 31.167H44.5518L43.4883 27.8447H39.2783L38.2061 31.167ZM41.4316 21.2441H41.3525L39.7266 26.3154H43.04L41.4316 21.2441ZM52.2644 31.2988C51.0603 31.2988 50.1462 30.7275 49.654 29.875H49.5837V34.252H47.6325V21.877H49.531V23.2393H49.6013C50.1111 22.3516 51.0603 21.7539 52.3083 21.7539C54.3913 21.7539 55.8767 23.3271 55.8767 26.1045V26.9307C55.8767 29.6904 54.4089 31.2988 52.2644 31.2988ZM51.8161 29.6904C53.0554 29.6904 53.8991 28.6973 53.8991 26.8252V26.1748C53.8991 24.373 53.1081 23.3447 51.781 23.3447C50.4187 23.3447 49.5661 24.4521 49.5661 26.166V26.8252C49.5661 28.583 50.4275 29.6904 51.8161 29.6904ZM62.183 31.2988C60.9789 31.2988 60.0649 30.7275 59.5727 29.875H59.5024V34.252H57.5512V21.877H59.4496V23.2393H59.52C60.0297 22.3516 60.9789 21.7539 62.227 21.7539C64.31 21.7539 65.7954 23.3271 65.7954 26.1045V26.9307C65.7954 29.6904 64.3276 31.2988 62.183 31.2988ZM61.7348 29.6904C62.9741 29.6904 63.8178 28.6973 63.8178 26.8252V26.1748C63.8178 24.373 63.0268 23.3447 61.6996 23.3447C60.3373 23.3447 59.4848 24.4521 59.4848 26.166V26.8252C59.4848 28.583 60.3461 29.6904 61.7348 29.6904ZM69.8387 27.8359H71.7899C71.8778 28.873 72.7919 29.7607 74.4882 29.7607C76.0438 29.7607 76.9667 29.0312 76.9667 27.8975C76.9667 26.9834 76.3514 26.4912 75.0682 26.1836L73.0995 25.6914C71.5526 25.3311 70.1639 24.4082 70.1639 22.457C70.1639 20.1631 72.1679 18.9062 74.497 18.9062C76.8261 18.9062 78.7684 20.1631 78.8124 22.4043H76.8964C76.8085 21.3848 76.0262 20.541 74.4706 20.541C73.0995 20.541 72.1679 21.1914 72.1679 22.3076C72.1679 23.0898 72.7128 23.6523 73.829 23.9072L75.7889 24.3906C77.5907 24.8301 78.9618 25.6826 78.9618 27.7217C78.9618 30.0771 77.0546 31.4043 74.3387 31.4043C70.9989 31.4043 69.8827 29.4531 69.8387 27.8359ZM81.3395 21.877V19.6182H83.2555V21.877H85.066V23.4414H83.2555V28.3984C83.2555 29.4092 83.6334 29.6904 84.6793 29.6904C84.8463 29.6904 85.0045 29.6904 85.1188 29.6729V31.167C84.9605 31.1934 84.5914 31.2285 84.1959 31.2285C81.9371 31.2285 81.3131 30.4199 81.3131 28.5566V23.4414H80.0299V21.877H81.3395ZM90.3353 21.7188C93.0071 21.7188 94.4573 23.5996 94.4573 26.1309V26.8779C94.4573 29.4971 93.0159 31.3252 90.3353 31.3252C87.6546 31.3252 86.1956 29.4971 86.1956 26.8779V26.1309C86.1956 23.6084 87.6634 21.7188 90.3353 21.7188ZM90.3353 23.2832C88.8851 23.2832 88.1644 24.4697 88.1644 26.1572V26.8691C88.1644 28.5303 88.8763 29.752 90.3353 29.752C91.7943 29.752 92.4974 28.5391 92.4974 26.8691V26.1572C92.4974 24.4609 91.7855 23.2832 90.3353 23.2832ZM96.1055 31.167V21.877H98.0567V23.0986H98.127C98.3643 22.5186 99.0586 21.7451 100.351 21.7451C100.606 21.7451 100.825 21.7627 101.01 21.7979V23.5205C100.843 23.4766 100.5 23.4502 100.175 23.4502C98.6104 23.4502 98.083 24.417 98.083 25.665V31.167H96.1055ZM105.743 31.3252C103.256 31.3252 101.674 29.6816 101.674 26.9307V25.9902C101.674 23.3975 103.22 21.7188 105.664 21.7188C108.142 21.7188 109.636 23.459 109.636 26.0781V26.9658H103.598V27.1855C103.598 28.75 104.442 29.7871 105.769 29.7871C106.762 29.7871 107.439 29.2949 107.677 28.4951H109.531C109.25 29.998 108.037 31.3252 105.743 31.3252ZM103.598 25.6035H107.729V25.5859C107.729 24.2676 106.912 23.2305 105.673 23.2305C104.416 23.2305 103.598 24.2676 103.598 25.5859V25.6035Z" fill="black"/>
</svg>
