<svg width="24" height="25" viewBox="0 0 24 25" fill="none" xmlns="http://www.w3.org/2000/svg">
<g clip-path="url(#clip0_3408_626)">
<path d="M12 0.666992C18.6274 0.666992 24 6.03958 24 12.667C24 18.8022 19.3955 23.8614 13.4538 24.5791V16.334L16.7001 16.334L17.3734 12.667H13.4538V11.3701C13.4538 10.4012 13.6439 9.73038 14.0799 9.30183C14.5159 8.87326 15.1979 8.68692 16.1817 8.68692C16.4307 8.68692 16.6599 8.6894 16.8633 8.69435C17.1591 8.70156 17.4002 8.71399 17.568 8.73166V5.40747C17.501 5.38883 17.4218 5.3702 17.3331 5.35185C17.1321 5.3103 16.8822 5.27023 16.6136 5.23505C16.0523 5.16152 15.4093 5.10929 14.9594 5.10929C13.1424 5.10929 11.7692 5.49802 10.8107 6.30318C9.65388 7.2749 9.10108 8.85321 9.10108 11.0869V12.667H6.62659V16.334H9.10108V24.3136C3.87432 23.0168 0 18.2947 0 12.667C0 6.03958 5.37259 0.666992 12 0.666992Z" fill="white"/>
</g>
<defs>
<clipPath id="clip0_3408_626">
<rect width="24" height="24" fill="white" transform="translate(0 0.666992)"/>
</clipPath>
</defs>
</svg>
