<svg width="320" height="107" viewBox="0 0 320 107" fill="none" xmlns="http://www.w3.org/2000/svg">
<rect x="1.33333" y="1.33333" width="317.333" height="104" rx="14.6667" fill="black"/>
<rect x="1.33333" y="1.33333" width="317.333" height="104" rx="14.6667" stroke="#A6A6A6" stroke-width="2.66667"/>
<path d="M47.4805 51.898L21.5732 80.016C21.5757 80.0209 21.5757 80.0284 21.5781 80.0334C22.3738 83.0865 25.0991 85.3335 28.3354 85.3335C29.6299 85.3335 30.8441 84.9752 31.8855 84.3481L31.9683 84.2984L61.1288 67.0916L47.4805 51.898Z" fill="#EA4335"/>
<path d="M73.6884 47.1097L73.6641 47.0923L61.0743 39.6298L46.8906 52.5367L61.1254 67.0884L73.6471 59.7006C75.8419 58.4863 77.3335 56.1199 77.3335 53.3927C77.3335 50.6804 75.8638 48.3265 73.6884 47.1097Z" fill="#FBBC04"/>
<path d="M21.5715 26.6487C21.4157 27.2359 21.333 27.853 21.333 28.49V78.1768C21.333 78.8138 21.4157 79.4309 21.5739 80.0156L48.3693 52.6168L21.5715 26.6487Z" fill="#4285F4"/>
<path d="M47.6698 53.3335L61.0772 39.6254L31.9507 22.3564C30.8922 21.707 29.6561 21.3337 28.3349 21.3337C25.0986 21.3337 22.3684 23.5857 21.5727 26.6413C21.5727 26.6438 21.5703 26.6463 21.5703 26.6488L47.6698 53.3335Z" fill="#34A853"/>
<path d="M116.293 29.5602C116.293 32.2268 115.502 34.3513 113.92 35.9335C112.142 37.8179 109.804 38.7602 106.907 38.7602C104.133 38.7602 101.787 37.8002 99.8667 35.8802C97.9467 33.9602 96.9867 31.5957 96.9867 28.7868C96.9867 25.9779 97.9467 23.6135 99.8667 21.6935C101.787 19.7735 104.133 18.8135 106.907 18.8135C108.311 18.8135 109.636 19.0624 110.88 19.5602C112.124 20.0579 113.147 20.7602 113.947 21.6668L112.187 23.4268C111.6 22.7157 110.836 22.1646 109.893 21.7735C108.969 21.3646 107.973 21.1602 106.907 21.1602C104.827 21.1602 103.067 21.8802 101.627 23.3202C100.204 24.7779 99.4933 26.6002 99.4933 28.7868C99.4933 30.9735 100.204 32.7957 101.627 34.2535C103.067 35.6935 104.827 36.4135 106.907 36.4135C108.809 36.4135 110.391 35.8802 111.653 34.8135C112.916 33.7468 113.644 32.2802 113.84 30.4135H106.907V28.1202H116.16C116.249 28.6179 116.293 29.0979 116.293 29.5602ZM130.421 19.2402V21.5868H121.728V27.6402H129.568V29.9335H121.728V35.9868H130.421V38.3335H119.274V19.2402H130.421ZM140.234 21.5868V38.3335H137.781V21.5868H132.447V19.2402H145.567V21.5868H140.234ZM156.441 38.3335H153.988V19.2402H156.441V38.3335ZM166.796 21.5868V38.3335H164.343V21.5868H159.01V19.2402H172.13V21.5868H166.796ZM198.723 28.7868C198.723 31.6135 197.78 33.9779 195.896 35.8802C193.994 37.8002 191.665 38.7602 188.909 38.7602C186.136 38.7602 183.807 37.8002 181.923 35.8802C180.038 33.9779 179.096 31.6135 179.096 28.7868C179.096 25.9602 180.038 23.5957 181.923 21.6935C183.807 19.7735 186.136 18.8135 188.909 18.8135C191.683 18.8135 194.012 19.7824 195.896 21.7202C197.78 23.6224 198.723 25.9779 198.723 28.7868ZM181.603 28.7868C181.603 30.9913 182.296 32.8135 183.683 34.2535C185.087 35.6935 186.829 36.4135 188.909 36.4135C190.989 36.4135 192.723 35.6935 194.109 34.2535C195.514 32.8313 196.216 31.0091 196.216 28.7868C196.216 26.5646 195.514 24.7424 194.109 23.3202C192.723 21.8802 190.989 21.1602 188.909 21.1602C186.829 21.1602 185.087 21.8802 183.683 23.3202C182.296 24.7602 181.603 26.5824 181.603 28.7868ZM204.071 38.3335H201.618V19.2402H204.605L213.885 34.0935H213.991L213.885 30.4135V19.2402H216.338V38.3335H213.778L204.071 22.7602H203.965L204.071 26.4402V38.3335Z" fill="white"/>
<path d="M249.382 83.7592H253.725V54.3952H249.382V83.7592ZM288.503 64.9725L283.524 77.7037H283.375L278.208 64.9725H273.529L281.278 82.7656L276.863 92.6641H281.39L293.333 64.9725H288.503ZM263.872 80.4238C262.447 80.4238 260.464 79.7073 260.464 77.9292C260.464 75.6648 262.934 74.7957 265.068 74.7957C266.977 74.7957 267.878 75.2115 269.037 75.7776C268.699 78.4976 266.379 80.4238 263.872 80.4238ZM264.395 64.3312C261.251 64.3312 257.992 65.7288 256.646 68.8271L260.501 70.4502C261.325 68.8271 262.859 68.2962 264.47 68.2962C266.716 68.2962 269 69.6562 269.037 72.0756V72.3763C268.25 71.923 266.567 71.2441 264.507 71.2441C260.352 71.2441 256.12 73.5484 256.12 77.854C256.12 81.7838 259.528 84.3159 263.346 84.3159C266.267 84.3159 267.878 82.9935 268.888 81.4432H269.037V83.7099H273.229V72.4515C273.229 67.2392 269.374 64.3312 264.395 64.3312ZM237.552 68.5475H231.375V58.4824H237.552C240.799 58.4824 242.643 61.1954 242.643 63.5138C242.643 65.7899 240.799 68.5475 237.552 68.5475ZM237.441 54.3952H227.033V83.7592H231.375V72.6347H237.441C242.254 72.6347 246.986 69.116 246.986 63.5138C246.986 57.9116 242.254 54.3952 237.441 54.3952ZM180.689 80.4285C177.688 80.4285 175.177 77.894 175.177 74.4128C175.177 70.8941 177.688 68.3197 180.689 68.3197C183.652 68.3197 185.975 70.8941 185.975 74.4128C185.975 77.894 183.652 80.4285 180.689 80.4285ZM185.677 66.6167H185.526C184.55 65.4446 182.677 64.3852 180.314 64.3852C175.363 64.3852 170.826 68.773 170.826 74.4128C170.826 80.0127 175.363 84.3653 180.314 84.3653C182.677 84.3653 184.55 83.3059 185.526 82.0938H185.677V83.5337C185.677 87.3555 183.652 89.399 180.389 89.399C177.726 89.399 176.075 87.4682 175.4 85.8404L171.613 87.4306C172.7 90.0802 175.589 93.3335 180.389 93.3335C185.489 93.3335 189.802 90.3057 189.802 82.9277V64.9889H185.677V66.6167ZM192.802 83.7592H197.153V54.3929H192.802V83.7592ZM203.563 74.0722C203.451 70.2129 206.526 68.2445 208.738 68.2445C210.465 68.2445 211.927 69.1136 212.413 70.3633L203.563 74.0722ZM217.064 70.7414C216.24 68.51 213.726 64.3852 208.589 64.3852C203.489 64.3852 199.252 68.4324 199.252 74.3752C199.252 79.9751 203.451 84.3653 209.075 84.3653C213.614 84.3653 216.24 81.5653 217.327 79.9375L213.952 77.6661C212.827 79.3315 211.289 80.4285 209.075 80.4285C206.864 80.4285 205.288 79.4067 204.275 77.403L217.513 71.876L217.064 70.7414ZM111.6 67.4506V71.6881H121.649C121.349 74.0722 120.562 75.8128 119.363 77.0225C117.899 78.5 115.611 80.1278 111.6 80.1278C105.411 80.1278 100.574 75.094 100.574 68.8506C100.574 62.6047 105.411 57.5733 111.6 57.5733C114.938 57.5733 117.375 58.8981 119.175 60.6011L122.138 57.6109C119.624 55.1892 116.288 53.3335 111.6 53.3335C103.125 53.3335 96 60.2981 96 68.8506C96 77.403 103.125 84.3653 111.6 84.3653C116.174 84.3653 119.624 82.8502 122.324 80.0127C125.101 77.2128 125.962 73.2783 125.962 70.0978C125.962 69.1136 125.888 68.2069 125.736 67.4506H111.6ZM137.389 80.4285C134.388 80.4285 131.8 77.9315 131.8 74.3752C131.8 70.779 134.388 68.3197 137.389 68.3197C140.387 68.3197 142.975 70.779 142.975 74.3752C142.975 77.9315 140.387 80.4285 137.389 80.4285ZM137.389 64.3852C131.912 64.3852 127.45 68.5851 127.45 74.3752C127.45 80.1278 131.912 84.3653 137.389 84.3653C142.864 84.3653 147.326 80.1278 147.326 74.3752C147.326 68.5851 142.864 64.3852 137.389 64.3852ZM159.067 80.4285C156.066 80.4285 153.478 77.9315 153.478 74.3752C153.478 70.779 156.066 68.3197 159.067 68.3197C162.067 68.3197 164.653 70.779 164.653 74.3752C164.653 77.9315 162.067 80.4285 159.067 80.4285ZM159.067 64.3852C153.592 64.3852 149.13 68.5851 149.13 74.3752C149.13 80.1278 153.592 84.3653 159.067 84.3653C164.542 84.3653 169.004 80.1278 169.004 74.3752C169.004 68.5851 164.542 64.3852 159.067 64.3852Z" fill="white"/>
</svg>
