<svg width="120" height="41" viewBox="0 0 120 41" fill="none" xmlns="http://www.w3.org/2000/svg">
<rect x="0.5" y="1.16699" width="119" height="39" rx="5.5" fill="white"/>
<rect x="0.5" y="1.16699" width="119" height="39" rx="5.5" stroke="black"/>
<path d="M17.8051 20.1287L8.08984 30.6729C8.09076 30.6748 8.09076 30.6776 8.09167 30.6794C8.39005 31.8244 9.41203 32.667 10.6256 32.667C11.1111 32.667 11.5664 32.5326 11.957 32.2975L11.988 32.2788L22.9232 25.8263L17.8051 20.1287Z" fill="#EA4335"/>
<path d="M27.6332 18.3332L27.624 18.3266L22.9029 15.5282L17.584 20.3683L22.922 25.8252L27.6177 23.0548C28.4407 22.5994 29.0001 21.712 29.0001 20.6893C29.0001 19.6722 28.4489 18.7895 27.6332 18.3332Z" fill="#FBBC04"/>
<path d="M8.08942 10.6602C8.03102 10.8805 8 11.1119 8 11.3507V29.9833C8 30.2222 8.03102 30.4536 8.09034 30.6729L18.1386 20.3983L8.08942 10.6602Z" fill="#4285F4"/>
<path d="M17.8762 20.667L22.904 15.5264L11.9815 9.05059C11.5846 8.80705 11.1211 8.66708 10.6256 8.66708C9.41197 8.66708 8.38816 9.51155 8.08978 10.6574C8.08978 10.6584 8.08887 10.6593 8.08887 10.6602L17.8762 20.667Z" fill="#34A853"/>
<path d="M43.61 12.377C43.61 13.377 43.3133 14.1737 42.72 14.767C42.0533 15.4737 41.1767 15.827 40.09 15.827C39.05 15.827 38.17 15.467 37.45 14.747C36.73 14.027 36.37 13.1403 36.37 12.087C36.37 11.0337 36.73 10.147 37.45 9.42699C38.17 8.70699 39.05 8.34699 40.09 8.34699C40.6167 8.34699 41.1133 8.44032 41.58 8.62699C42.0467 8.81366 42.43 9.07699 42.73 9.41699L42.07 10.077C41.85 9.81033 41.5633 9.60366 41.21 9.45699C40.8633 9.30366 40.49 9.22699 40.09 9.22699C39.31 9.22699 38.65 9.49699 38.11 10.037C37.5767 10.5837 37.31 11.267 37.31 12.087C37.31 12.907 37.5767 13.5903 38.11 14.137C38.65 14.677 39.31 14.947 40.09 14.947C40.8033 14.947 41.3967 14.747 41.87 14.347C42.3433 13.947 42.6167 13.397 42.69 12.697H40.09V11.837H43.56C43.5933 12.0237 43.61 12.2037 43.61 12.377ZM48.9078 8.50699V9.38699H45.6478V11.657H48.5878V12.517H45.6478V14.787H48.9078V15.667H44.7278V8.50699H48.9078ZM52.5877 9.38699V15.667H51.6677V9.38699H49.6677V8.50699H54.5877V9.38699H52.5877ZM58.6654 15.667H57.7454V8.50699H58.6654V15.667ZM62.5487 9.38699V15.667H61.6287V9.38699H59.6287V8.50699H64.5487V9.38699H62.5487ZM74.521 12.087C74.521 13.147 74.1677 14.0337 73.461 14.747C72.7477 15.467 71.8743 15.827 70.841 15.827C69.801 15.827 68.9277 15.467 68.221 14.747C67.5143 14.0337 67.161 13.147 67.161 12.087C67.161 11.027 67.5143 10.1403 68.221 9.42699C68.9277 8.70699 69.801 8.34699 70.841 8.34699C71.881 8.34699 72.7543 8.71033 73.461 9.43699C74.1677 10.1503 74.521 11.0337 74.521 12.087ZM68.101 12.087C68.101 12.9137 68.361 13.597 68.881 14.137C69.4077 14.677 70.061 14.947 70.841 14.947C71.621 14.947 72.271 14.677 72.791 14.137C73.3177 13.6037 73.581 12.9203 73.581 12.087C73.581 11.2537 73.3177 10.5703 72.791 10.037C72.271 9.49699 71.621 9.22699 70.841 9.22699C70.061 9.22699 69.4077 9.49699 68.881 10.037C68.361 10.577 68.101 11.2603 68.101 12.087ZM76.5267 15.667H75.6067V8.50699H76.7267L80.2067 14.077H80.2467L80.2067 12.697V8.50699H81.1267V15.667H80.1667L76.5267 9.82699H76.4867L76.5267 11.207V15.667Z" fill="black"/>
<path d="M93.5181 32.0766H95.1469V21.0651H93.5181V32.0766ZM108.189 25.0316L106.322 29.8058H106.266L104.328 25.0316H102.573L105.479 31.704L103.823 35.4159H105.521L110 25.0316H108.189ZM98.9519 30.8258C98.4176 30.8258 97.6739 30.5572 97.6739 29.8904C97.6739 29.0412 98.6001 28.7153 99.4005 28.7153C100.116 28.7153 100.454 28.8712 100.889 29.0835C100.762 30.1035 99.892 30.8258 98.9519 30.8258ZM99.1483 24.7911C97.969 24.7911 96.7469 25.3152 96.2424 26.4771L97.6879 27.0857C97.9969 26.4771 98.5721 26.278 99.1762 26.278C100.019 26.278 100.875 26.788 100.889 27.6953V27.808C100.594 27.638 99.9627 27.3835 99.1902 27.3835C97.632 27.3835 96.0451 28.2476 96.0451 29.8622C96.0451 31.3359 97.323 32.2854 98.7546 32.2854C99.8501 32.2854 100.454 31.7895 100.833 31.2081H100.889V32.0581H102.461V27.8362C102.461 25.8816 101.015 24.7911 99.1483 24.7911ZM89.0821 26.3723H86.7655V22.5978H89.0821C90.2998 22.5978 90.9911 23.6152 90.9911 24.4846C90.9911 25.3381 90.2998 26.3723 89.0821 26.3723ZM89.0402 21.0651H85.1375V32.0766H86.7655V27.9049H89.0402C90.8453 27.9049 92.6199 26.5854 92.6199 24.4846C92.6199 22.3838 90.8453 21.0651 89.0402 21.0651ZM67.7583 30.8276C66.6332 30.8276 65.6913 29.8772 65.6913 28.5717C65.6913 27.2522 66.6332 26.2868 67.7583 26.2868C68.8695 26.2868 69.7406 27.2522 69.7406 28.5717C69.7406 29.8772 68.8695 30.8276 67.7583 30.8276ZM69.6289 25.6482H69.5722C69.2064 25.2087 68.5038 24.8114 67.6178 24.8114C65.7611 24.8114 64.0599 26.4568 64.0599 28.5717C64.0599 30.6717 65.7611 32.3039 67.6178 32.3039C68.5038 32.3039 69.2064 31.9066 69.5722 31.4521H69.6289V31.9921C69.6289 33.4252 68.8695 34.1916 67.6457 34.1916C66.6471 34.1916 66.0282 33.4675 65.7751 32.8571L64.3549 33.4534C64.7626 34.447 65.8458 35.667 67.6457 35.667C69.5582 35.667 71.1757 34.5316 71.1757 31.7648V25.0378H69.6289V25.6482ZM72.3008 32.0766H73.9323V21.0643H72.3008V32.0766ZM76.3362 28.444C76.2943 26.9968 77.4474 26.2586 78.2766 26.2586C78.9243 26.2586 79.4725 26.5845 79.6549 27.0532L76.3362 28.444ZM81.3989 27.195C81.0899 26.3582 80.1472 24.8114 78.2208 24.8114C76.3083 24.8114 74.7196 26.3291 74.7196 28.5576C74.7196 30.6576 76.2943 32.3039 78.4032 32.3039C80.1053 32.3039 81.0899 31.2539 81.4976 30.6435L80.2319 29.7917C79.8103 30.4162 79.2333 30.8276 78.4032 30.8276C77.5739 30.8276 76.983 30.4444 76.6033 29.6931L81.5674 27.6204L81.3989 27.195ZM41.8501 25.9609V27.55H45.6184C45.5058 28.444 45.2107 29.0967 44.7612 29.5504C44.2121 30.1044 43.3541 30.7149 41.8501 30.7149C39.5291 30.7149 37.7152 28.8272 37.7152 26.4859C37.7152 24.1437 39.5291 22.2569 41.8501 22.2569C43.1018 22.2569 44.0157 22.7537 44.6905 23.3923L45.8017 22.271C44.8589 21.3629 43.6081 20.667 41.8501 20.667C38.6719 20.667 36 23.2787 36 26.4859C36 29.6931 38.6719 32.3039 41.8501 32.3039C43.5653 32.3039 44.8589 31.7358 45.8715 30.6717C46.9129 29.6217 47.2358 28.1463 47.2358 26.9536C47.2358 26.5845 47.2079 26.2445 47.1512 25.9609H41.8501ZM51.5208 30.8276C50.3957 30.8276 49.425 29.8913 49.425 28.5576C49.425 27.2091 50.3957 26.2868 51.5208 26.2868C52.6451 26.2868 53.6158 27.2091 53.6158 28.5576C53.6158 29.8913 52.6451 30.8276 51.5208 30.8276ZM51.5208 24.8114C49.4669 24.8114 47.7936 26.3864 47.7936 28.5576C47.7936 30.7149 49.4669 32.3039 51.5208 32.3039C53.5739 32.3039 55.2472 30.7149 55.2472 28.5576C55.2472 26.3864 53.5739 24.8114 51.5208 24.8114ZM59.65 30.8276C58.5249 30.8276 57.5542 29.8913 57.5542 28.5576C57.5542 27.2091 58.5249 26.2868 59.65 26.2868C60.7752 26.2868 61.745 27.2091 61.745 28.5576C61.745 29.8913 60.7752 30.8276 59.65 30.8276ZM59.65 24.8114C57.597 24.8114 55.9237 26.3864 55.9237 28.5576C55.9237 30.7149 57.597 32.3039 59.65 32.3039C61.7031 32.3039 63.3764 30.7149 63.3764 28.5576C63.3764 26.3864 61.7031 24.8114 59.65 24.8114Z" fill="black"/>
</svg>
