<svg width="24" height="25" viewBox="0 0 24 25" fill="none" xmlns="http://www.w3.org/2000/svg">
<path d="M18.3952 7.68911C17.6005 7.69067 16.9543 7.0472 16.9528 6.25247C16.9512 5.45775 17.5947 4.81156 18.3898 4.81001C19.1848 4.80845 19.831 5.45231 19.8326 6.24703C19.8338 7.04175 19.1903 7.68756 18.3952 7.68911Z" fill="white"/>
<path fill-rule="evenodd" clip-rule="evenodd" d="M12.0115 18.828C8.60909 18.8346 5.8451 16.0819 5.8385 12.6786C5.83188 9.27622 8.58535 6.5118 11.9878 6.50519C15.3909 6.49858 18.1553 9.25289 18.1619 12.6549C18.1685 16.0582 15.4143 18.8214 12.0115 18.828ZM11.992 8.66734C9.78365 8.67124 7.99594 10.4656 7.99983 12.6744C8.0041 14.8836 9.79882 16.6709 12.0072 16.6666C14.2164 16.6624 16.0041 14.8684 15.9998 12.6592C15.9955 10.45 14.2008 8.66307 11.992 8.66734Z" fill="white"/>
<path fill-rule="evenodd" clip-rule="evenodd" d="M4.1192 1.31347C4.88126 1.01487 5.75333 0.810354 7.03015 0.75009C8.31011 0.688665 8.71872 0.674663 11.9769 0.668445C15.2358 0.662226 15.6444 0.674661 16.9244 0.731426C18.2016 0.786635 19.0741 0.988041 19.8377 1.28354C20.6277 1.58797 21.298 1.99777 21.9659 2.66302C22.6339 3.32904 23.0453 3.99701 23.3536 4.7859C23.6518 5.54874 23.8563 6.42005 23.917 7.69767C23.9776 8.97722 23.9924 9.38546 23.9986 12.644C24.0048 15.9022 23.9916 16.3113 23.9356 17.592C23.88 18.8684 23.679 19.7413 23.3835 20.5045C23.0783 21.2946 22.6693 21.9649 22.004 22.6329C21.3388 23.3012 20.6701 23.7122 19.8812 24.0209C19.1184 24.3187 18.2471 24.5232 16.9702 24.5843C15.6903 24.6449 15.2817 24.6593 12.0224 24.6655C8.76459 24.6718 8.35598 24.6593 7.07605 24.6029C5.79882 24.547 4.92597 24.3459 4.16275 24.0508C3.37271 23.7452 2.70242 23.3366 2.03445 22.671C1.36611 22.0053 0.954386 21.337 0.646458 20.5481C0.347857 19.7856 0.144107 18.9139 0.0830727 17.6375C0.0220359 16.3571 0.00765506 15.9481 0.00143906 12.6899C-0.00480094 9.43135 0.00803666 9.02311 0.0640167 7.74315C0.1204 6.46554 0.320637 5.59305 0.616129 4.82905C0.921328 4.03938 1.33035 3.36947 1.99637 2.70112C2.6616 2.03316 3.33033 1.62101 4.1192 1.31347ZM4.94154 22.0349C5.36494 22.1978 6.00023 22.3922 7.17014 22.4431C8.43607 22.4979 8.81514 22.51 12.0185 22.5038C15.223 22.4979 15.6021 22.4843 16.8676 22.4248C18.0363 22.3692 18.6716 22.1725 19.0939 22.0077C19.6541 21.7887 20.053 21.5271 20.4722 21.1076C20.8913 20.6865 21.1506 20.2864 21.3676 19.7261C21.5309 19.3023 21.7249 18.6666 21.7758 17.4967C21.8314 16.2316 21.8431 15.8521 21.8368 12.6479C21.831 9.44456 21.8174 9.06509 21.7572 7.79953C21.7019 6.63038 21.5056 5.99507 21.3404 5.57322C21.1215 5.01218 20.8606 4.61405 20.4399 4.19452C20.0192 3.775 19.6191 3.51644 19.0581 3.29949C18.6355 3.13581 17.9994 2.94217 16.8303 2.89125C15.5643 2.83565 15.1849 2.82436 11.9808 2.83059C8.77743 2.83681 8.39836 2.84964 7.13281 2.90952C5.9633 2.96511 5.32877 3.16146 4.90575 3.32671C4.34587 3.5456 3.94696 3.80572 3.52746 4.2268C3.10871 4.64786 2.84938 5.04717 2.63244 5.6086C2.46993 6.03163 2.27434 6.66771 2.2242 7.83686C2.16898 9.1028 2.15733 9.48228 2.16355 12.6856C2.16939 15.8898 2.18298 16.2693 2.24247 17.5341C2.29729 18.704 2.49518 19.3385 2.65966 19.7619C2.87855 20.3214 3.13944 20.7203 3.55973 21.1398C3.98081 21.5578 4.38088 21.8179 4.94154 22.0349Z" fill="white"/>
</svg>
