<svg width="24" height="25" viewBox="0 0 24 25" fill="none" xmlns="http://www.w3.org/2000/svg">
<path fill-rule="evenodd" clip-rule="evenodd" d="M12.0227 1.66504C9.63157 1.66804 7.33917 2.61898 5.64803 4.30942C3.95688 5.99986 3.00498 8.29186 3.00098 10.683C3.00098 14.1337 5.18176 17.2783 7.2605 19.614C9.33924 21.9498 11.418 23.5069 11.418 23.5069C11.5914 23.637 11.8022 23.7072 12.0189 23.7072C12.2356 23.7072 12.4465 23.637 12.6199 23.5069C12.6199 23.5069 14.6986 21.9498 16.7774 19.614C18.8561 17.2783 21.0369 14.1337 21.0369 10.683C21.0349 8.2919 20.0841 5.99931 18.3934 4.30855C16.7026 2.61779 14.4138 1.66704 12.0227 1.66504ZM12.0189 6.67669C13.0815 6.67669 14.1005 7.09878 14.8518 7.85011C15.6031 8.60144 16.0252 9.62046 16.0252 10.683C16.0252 11.7455 15.6031 12.7645 14.8518 13.5159C14.1005 14.2672 13.0815 14.6893 12.0189 14.6893C10.9564 14.6893 9.93737 14.2672 9.18605 13.5159C8.43472 12.7645 8.01263 11.7455 8.01263 10.683C8.01263 9.62046 8.43472 8.60144 9.18605 7.85011C9.93737 7.09878 10.9564 6.67669 12.0189 6.67669Z" fill="#DD2B1C"/>
</svg>
