<svg width="144" height="50" viewBox="0 0 144 50" fill="none" xmlns="http://www.w3.org/2000/svg">
<rect width="50" height="50" rx="25" fill="white"/>
<path d="M24.0721 1.60371C36.9917 1.09127 47.8812 11.1478 48.3962 24.0672C48.9113 36.9867 38.8569 47.8783 25.9375 48.396C13.0144 48.9137 2.1191 38.8558 1.6039 25.9327C1.0887 13.0095 11.1488 2.11631 24.0721 1.60371ZM25.8816 47.4524C38.2883 46.9653 47.948 36.5078 47.452 24.1016C46.9559 11.6954 36.4921 2.04279 24.0862 2.54735C11.6922 3.0514 2.05096 13.5028 2.54652 25.8971C3.04208 38.2913 13.487 47.9395 25.8816 47.4524Z" fill="#DD2B1C"/>
<path d="M8.78006 11.3297C8.93865 11.3148 9.09333 11.3026 9.25039 11.3377C9.81627 11.464 10.4191 11.7817 10.955 12.0053C11.9312 12.4127 12.9158 12.8089 13.8828 13.2373C14.1355 13.3491 14.4698 13.4989 14.6543 13.712C15.0196 14.1339 15.6192 16.1311 15.8604 16.7643L29.5903 16.7638L34.0279 16.7591C34.8395 16.7582 35.6774 16.7165 36.4864 16.7807C36.7463 16.8013 36.9537 16.8338 37.1616 17.0048C37.3385 17.1503 37.5324 17.409 37.5522 17.6408C37.5726 17.8792 37.5088 18.1446 37.4433 18.3718C37.1579 19.3614 33.5667 30.0295 33.3212 30.2826C33.1516 30.4576 32.6453 30.5155 32.4103 30.5353C31.061 30.6492 29.5228 30.5537 28.1539 30.5536L19.4999 30.545L18.7073 32.4719L30.5287 32.4662C31.3889 32.4723 32.8781 32.2201 33.5705 32.7965C33.7665 32.9596 33.8961 33.1845 33.9053 33.4422C33.9154 33.7282 33.7872 34.0083 33.587 34.2091C33.2077 34.5894 32.7998 34.5809 32.2973 34.5775C32.418 34.7747 32.5339 34.9886 32.6117 35.2065C32.8784 35.9323 32.8396 36.7351 32.5042 37.4318C32.1666 38.1296 31.5784 38.6699 30.839 38.9137C30.0984 39.1595 29.2898 39.0949 28.5976 38.7345C27.9068 38.3777 27.3905 37.7557 27.1669 37.011C26.9093 36.1353 27.1009 35.3626 27.5331 34.586L22.1104 34.5802C22.2404 34.8065 22.3635 35.0433 22.444 35.2919C22.6817 36.0257 22.6376 36.8104 22.2805 37.4984C21.9221 38.1878 21.3024 38.7047 20.5598 38.9336C19.8389 39.1561 19.0136 39.0862 18.3489 38.7258C17.6708 38.3582 17.1805 37.7059 16.9642 36.9704C16.7136 36.1183 16.9037 35.366 17.3219 34.6071C17.0201 34.5819 16.7512 34.5508 16.4912 34.3782C16.2702 34.2314 16.1229 33.9613 16.0851 33.7009C16.013 33.2031 17.6743 29.2703 18.0279 28.773C16.4442 24.2167 14.6476 19.7292 13.0251 15.1857L10.1276 13.9687C9.61458 13.7531 9.03986 13.5622 8.56681 13.2695C8.36943 13.1473 8.19464 12.9985 8.0902 12.7862C7.97426 12.5508 7.97805 12.2991 8.06278 12.0546C8.19639 11.6693 8.4349 11.5019 8.78006 11.3297ZM17.248 20.5555L21.9475 20.555L21.9427 18.8837L16.6228 18.8801C16.8381 19.436 17.0465 19.9945 17.248 20.5555ZM24.0415 24.7435C24.7272 24.7435 27.4931 24.832 27.9362 24.7255L27.9523 24.6785L27.9835 24.6833C27.9863 24.0086 27.9793 23.3323 27.9921 22.6578H24.0462L24.0415 24.7435ZM30.104 20.5509L34.4847 20.5525L34.6555 20.0455L35.0364 18.8795L30.1037 18.8673L30.104 20.5509ZM24.0499 28.441L27.9738 28.436C27.9943 27.9075 27.9897 27.3787 27.9891 26.85L24.0479 26.8471L24.0499 28.441ZM30.1033 26.8499L30.1017 28.4412C30.6499 28.4492 31.2382 28.5047 31.7785 28.4108C31.831 28.3435 31.864 28.2983 31.8845 28.2147L32.3475 26.8523L30.1033 26.8499ZM18.7965 24.741C19.8442 24.741 20.8942 24.7559 21.9416 24.7391L21.9389 22.6575L18.0163 22.6574L18.7965 24.741ZM21.9392 26.8515C21.1479 26.8467 20.3566 26.8459 19.5653 26.8491C19.7621 27.3783 19.9694 27.906 20.1512 28.4405L21.9118 28.4334C22.0209 27.9643 21.9374 27.3395 21.9392 26.8515ZM24.0454 18.8637L24.0456 20.5528L27.933 20.5514L27.983 20.5002L27.9788 20.4753L27.9888 18.8785C26.6748 18.8729 25.359 18.8859 24.0454 18.8637ZM33.7631 22.6591L30.1046 22.6586L30.1047 24.7467L33.0617 24.7418L33.2132 24.2855L33.7631 22.6591Z" fill="#DD2B1C"/>
<path d="M19.6297 35.0262C20.2659 34.9758 20.825 35.4449 20.886 36.0802C20.947 36.7154 20.4873 37.2822 19.8531 37.3538C19.4334 37.4011 19.0207 37.2184 18.7736 36.8758C18.5266 36.5332 18.4835 36.0841 18.6609 35.7007C18.8383 35.3174 19.2086 35.0595 19.6297 35.0262Z" fill="white"/>
<path d="M29.8314 35.0252C30.4698 34.9782 31.0273 35.4535 31.0819 36.0913C31.1365 36.7291 30.668 37.2922 30.0309 37.3545C29.6119 37.3955 29.2032 37.2081 28.961 36.8637C28.7187 36.5194 28.6803 36.0713 28.8605 35.6908C29.0407 35.3103 29.4115 35.056 29.8314 35.0252Z" fill="white"/>
<path d="M96.7755 19.7565C96.9581 19.7551 97.1373 19.7625 97.3156 19.807C97.7802 19.9227 98.3739 20.2493 98.6015 20.6776C98.6974 20.8591 98.7119 20.9658 98.655 21.1643C98.3169 22.3302 97.7191 23.497 97.2587 24.6239C96.4833 26.5042 95.7954 28.4191 95.1975 30.3622C96.6116 28.3064 101.289 21.2623 103.326 20.6605C103.642 20.567 103.934 20.6418 104.213 20.8028C104.709 21.0893 105.522 21.5347 105.679 22.1202C105.508 22.8549 104.285 24.8943 103.882 25.7281C103.299 26.9375 101.787 31.1438 101.26 31.6782C102.129 31.0364 102.799 29.7154 103.407 28.8256C104.723 26.9001 108.361 21.5371 110.291 20.7223C110.568 20.6052 110.797 20.553 111.078 20.6752C111.627 20.9137 112.516 21.5039 112.746 22.0528C112.788 22.5165 111.949 23.7077 111.708 24.168C110.654 26.1807 109.718 28.3136 108.982 30.4624C108.7 31.2862 107.973 33.1799 108.412 33.9633C108.495 34.1102 108.618 34.2262 108.786 34.2629C109.228 34.3594 109.842 33.9392 110.189 33.7024C111.793 32.6085 113.544 30.0047 114.275 28.2088C114.79 26.9463 115.126 25.6688 115.833 24.4817C116.5 23.3607 117.396 22.2974 118.492 21.5743C119.395 20.9773 120.52 20.5924 121.609 20.8308C122.391 21.002 122.969 21.5053 123.382 22.1736C123.7 22.6898 124.215 23.7568 124.069 24.3575C124.904 23.5343 125.029 21.1084 126.135 20.4685C126.374 20.3306 126.637 20.3267 126.897 20.4033C127.387 20.5478 128.232 21.1473 128.475 21.5838C128.485 22.0066 126.794 25.2803 126.474 26.0239C125.701 27.8252 125.072 29.6518 124.688 31.574C124.56 32.2174 124.353 32.9745 124.54 33.6167C124.606 33.693 124.681 33.8153 124.771 33.8569C125.034 33.9781 125.262 33.9415 125.524 33.8308C126.97 33.2185 129.2 29.7979 129.848 28.3974C130.405 27.1953 130.763 25.8653 131.258 24.6288C131.6 23.7748 132.942 20.2191 133.773 19.9358C134.071 19.8339 134.457 20.0108 134.725 20.1388C135.125 20.3298 135.634 20.7026 135.786 21.1299C135.794 21.1691 135.813 21.2345 135.812 21.2789C135.807 21.7203 134.441 24.6253 134.148 25.1635C134.047 25.3494 133.911 25.5042 133.753 25.6439C134.146 25.3865 134.368 25.1013 134.656 24.7378C135.455 23.7282 137.628 20.8721 138.964 20.7653C139.413 20.7294 139.775 20.9316 140.11 21.2042C140.42 21.4558 140.851 21.7807 140.891 22.2021C141.024 23.4101 138.288 27.8045 138.99 29.4546C139.071 29.645 139.226 29.8037 139.428 29.8621C139.93 30.0066 140.477 29.7616 140.918 29.5416C141.493 29.2549 142.714 28.6016 142.927 27.9552C143.274 28.0381 143.743 28.1829 144 28.4395C143.995 28.4607 143.993 28.4828 143.987 28.5033C143.814 29.0016 142.817 29.6827 142.373 29.9546C141.125 30.7182 139.684 31.1953 138.217 30.8327C136.781 30.4777 137.026 29.6644 136.412 28.7034C136.402 28.6883 136.391 28.6735 136.381 28.6585C136.61 28.1843 136.471 27.3865 136.619 26.831C136.891 25.8092 138.251 23.5857 138.176 22.7302C138.05 23.0408 137.138 23.8207 136.845 24.1518C135.942 25.1701 135.103 26.3429 134.424 27.5183C133.636 28.8824 132.941 30.3392 132.327 31.7885C132.006 32.5461 131.341 34.7881 130.92 35.3174C130.431 35.4034 129.634 35.4192 129.202 35.1521C128.154 34.5044 128.92 33.0285 128.706 32.1372C128.702 32.121 128.698 32.105 128.693 32.0889C128.69 32.1648 128.694 32.1753 128.664 32.2579C128.358 33.0827 126.878 34.5025 126.078 34.9115C125.335 35.2918 124.463 35.3836 123.667 35.1111C122.755 34.7985 122.278 34.113 122.094 33.1898C122.053 32.9776 122.049 32.7123 121.948 32.5198C121.935 32.4931 121.92 32.4671 121.905 32.4407C121.897 32.4569 121.888 32.4732 121.88 32.4892C121.258 33.6363 119.767 34.8053 118.507 35.1625C117.713 35.388 116.833 35.3546 116.103 34.9455C114.449 34.0185 114.49 32.3284 114.046 30.7487C114.04 30.7288 114.034 30.7089 114.028 30.6891C113.969 31.138 112.951 32.3344 112.634 32.7162C111.63 33.9285 110.52 35.2024 108.841 35.3498C108.026 35.4213 107.204 35.2755 106.569 34.7315C106.081 34.3122 105.786 33.7486 105.706 33.1127C105.437 30.9823 107.123 27.3544 107.964 25.3811C108.196 24.8378 108.707 23.9642 108.645 23.3873C108.643 23.3682 108.639 23.3494 108.637 23.3305C108.571 23.8531 106.711 25.878 106.276 26.4295C104.848 28.2374 103.291 30.2067 102.233 32.252C101.806 33.0775 101.551 34.3659 101.073 35.0477C100.975 35.1871 100.879 35.2692 100.705 35.2886C100.286 35.3352 99.7463 34.9134 99.449 34.6508C99.0703 34.3169 98.8095 33.9653 98.6881 33.4673C98.1454 31.2515 100.072 27.2711 100.954 25.1966C101.171 24.6891 101.649 23.8666 101.599 23.3296C101.598 23.312 101.594 23.2945 101.593 23.277C101.575 23.3962 101.559 23.4844 101.49 23.5866C101.051 24.2381 100.454 24.8369 99.9493 25.4453C99.2656 26.2713 98.6261 27.1383 98.0002 28.0085C97.0897 29.269 96.2421 30.5725 95.4582 31.9145C95.1584 32.4282 94.0773 35.1003 93.8692 35.2365C93.6144 35.4042 93.1482 35.3258 92.862 35.2712C92.4823 35.1989 92.1477 35.0084 91.9396 34.679C91.4054 33.8362 91.7919 32.5845 91.9796 31.69C90.9799 33.0289 89.7009 34.914 87.9658 35.2922C87.294 35.4389 86.4906 35.3522 85.9105 34.967C85.3364 34.5863 85.0298 33.9636 84.9075 33.3033C84.398 30.5484 86.1917 26.4323 87.2626 23.9703C87.6745 23.0219 88.1 21.9299 88.7132 21.089C88.8219 20.9403 88.9518 20.7667 89.1472 20.7512C89.8462 20.696 90.9969 21.7769 91.504 22.2262C90.3999 24.7872 87.6788 30.4857 87.5301 33.0763C87.5115 33.4083 87.5123 33.6929 87.7442 33.9523C87.8486 33.9908 87.9488 34.0316 88.0626 34.0232C88.6223 33.9823 89.2423 33.3094 89.6151 32.931C90.918 31.6077 92.2802 29.6837 93.0386 28.0045C94.0866 25.6869 95.0387 21.6642 96.7143 19.8227L96.7755 19.7565ZM118.449 33.9098C119.774 33.5104 121.045 31.4209 121.683 30.2387C122.64 28.4677 123.672 25.5782 123.084 23.5982C122.962 23.1848 122.728 22.8255 122.333 22.6256C121.996 22.4551 121.664 22.4881 121.304 22.5522C118.89 24.1567 117.612 27.3449 117.057 30.0871C116.863 31.0459 116.587 32.7646 117.135 33.629C117.275 33.8516 117.5 34.0077 117.758 34.0609C117.928 34.0975 118.168 34.1046 118.325 34.0149C118.399 33.973 118.4 33.9643 118.449 33.9098Z" fill="white"/>
<path d="M78.6804 6.94935C80.119 6.84381 81.7879 6.81906 83.1807 7.20958C84.5634 7.58668 85.7345 8.50368 86.4284 9.75257C87.2412 11.2392 87.1562 12.9102 86.6917 14.4916C85.7965 17.5402 83.5663 20.7822 81.117 22.806C80.0273 23.7056 78.829 24.4107 77.5924 25.0873C78.8595 25.3071 80.0511 25.6991 81.0533 26.5319C81.9943 27.3136 82.5794 28.383 82.6712 29.6042C82.8155 31.5272 81.8355 33.1961 80.6201 34.6095C77.8931 37.7814 73.6475 40.4372 69.6728 41.7246C67.4578 42.4419 65.1724 42.8142 62.8544 42.9934C61.0816 43.1305 57.9762 43.4085 56.5622 42.1309C56.2393 41.839 56.0092 41.4592 56.0003 41.0154C55.9903 40.5194 56.2572 40.0679 56.5895 39.7173C57.2059 39.0671 58.4476 38.3375 59.3594 38.3181C59.374 38.5775 59.2933 38.8261 59.351 39.0842C59.4431 39.4961 59.7565 39.8242 60.1101 40.0382C61.5235 40.8935 64.2688 40.3484 65.8068 39.9721C70.2053 38.8958 76.31 36.003 78.7211 31.9849C79.308 31.0066 79.7972 29.7289 79.4931 28.58C79.3224 27.9333 78.9725 27.4448 78.3848 27.1088C76.3533 25.9472 73.4836 26.9792 71.385 27.5244C69.9947 29.9697 68.6749 33.5928 68.1135 36.3183C67.9334 37.1495 67.8672 38.0012 67.8196 38.8483C67.4952 38.8233 67.1614 38.8042 66.8413 38.7502C66.1211 38.6291 65.6327 38.2905 65.2183 37.7054C65.0603 35.8399 65.7533 33.8262 66.3436 32.0799C68.5254 25.6304 72.2241 18.798 76.3202 13.3338C76.8765 12.5917 78.0434 10.9816 78.874 10.6242C79.1814 10.4916 79.5814 10.5504 79.8736 10.6948C80.17 10.8408 80.4316 11.089 80.5335 11.4081C80.6244 11.6951 80.5598 11.9861 80.4367 12.2536C79.6052 14.0623 78.3126 15.7653 77.2196 17.432C75.5694 19.9493 73.9736 22.484 72.5655 25.1449C73.5642 24.8492 74.5265 24.4976 75.4352 23.983C79.1339 21.8875 83.1442 17.904 84.2619 13.6962C84.5362 12.6644 84.5965 11.5244 84.0232 10.5784C83.5391 9.77927 82.7391 9.30315 81.8431 9.08136C79.3436 8.46211 76.3966 9.47036 74.2598 10.7645C71.2465 12.5901 68.9067 14.9669 68.0498 18.4605C67.7441 18.2881 67.4409 18.1139 67.1674 17.8935C66.572 17.4137 66.0727 16.7775 65.9962 15.9958C65.902 15.0307 66.4999 14.1905 67.0859 13.4817C68.0031 12.3718 69.0885 11.3707 70.218 10.478C72.8296 8.41412 75.3486 7.28005 78.6804 6.94935Z" fill="white"/>
<path d="M91.5304 15.8901C92.3856 15.9542 93.0888 16.7089 93.6944 17.247C92.9326 18.1251 92.4706 19.0937 91.9882 20.136C91.1448 19.7161 90.4119 19.3047 89.8369 18.5437C90.1639 17.4441 90.6106 16.6018 91.5304 15.8901Z" fill="white"/>
</svg>
