<svg width="312" height="312" viewBox="0 0 312 312" fill="none" xmlns="http://www.w3.org/2000/svg">
<path d="M36.2609 48.9267C36.27 48.4953 36.3166 48.3496 36.5817 48.0294C37.3858 47.934 46.2449 53.1338 47.4353 53.7785C48.7412 54.4854 50.1671 55.0326 51.4051 55.8522C52.8792 56.8285 54.0476 58.1764 55.5104 59.1679C55.6472 58.9381 55.7908 58.7718 55.979 58.5822C57.0391 58.7328 58.0713 60.4247 58.8797 61.1459C59.6195 61.8061 62.5122 63.8256 63.4451 63.7763C63.383 62.6123 53.8584 42.2921 52.4322 39.0914C50.7354 35.3069 49.1236 31.4849 47.5974 27.6283C46.2281 24.1067 44.4155 19.0333 46.1459 15.3321C46.7437 14.0534 47.7494 13.1885 49.0812 12.7328C51.1653 12.0199 53.3688 12.7389 55.2402 13.7078C59.1237 15.7182 70.7064 25.1876 71.9962 29.2863L72.2762 29.2259C72.4096 28.746 72.4221 28.4703 72.788 28.1224C73.8663 28.2973 75.9726 31.3819 76.6731 32.355C78.1496 34.4065 78.0527 35.7441 78.9985 37.3144C79.8144 38.6685 81.3723 39.7858 82.4585 40.9405C83.2998 41.8354 84.0176 42.8494 84.7355 43.8433C85.0727 44.3107 85.6562 45.4112 86.1669 45.6172C88.385 46.5124 90.2317 49.877 91.4998 51.8282C95.9726 50.0001 100.409 47.7409 104.945 46.1248C109.615 36.0323 117.013 21.498 128.049 17.3814C131.595 16.0584 135.534 16.0022 138.997 17.6159C144.264 20.0704 147.558 25.7293 149.429 30.9934C152.817 40.5268 153.2 51.0348 153.067 61.0591C155.973 62.9064 158.864 64.7778 161.738 66.6732C163.191 67.6287 164.914 68.5483 166.156 69.7667L166.308 69.9142C165.931 80.297 166.894 90.8362 167.415 101.21C168.272 118.487 169.228 135.76 170.283 153.026C170.83 160.402 171.285 167.784 171.645 175.171C171.722 176.99 172.127 179.279 171.797 181.036C170.858 181.732 166.056 183.2 164.604 183.739L141.969 192.168L93.218 210.74L75.8215 217.429C72.3539 218.749 68.8914 220.147 65.357 221.28L29.8264 205.151C26.4086 203.613 22.9814 202.095 19.5451 200.599C17.6844 199.784 15.6531 199.068 13.9217 198.016C13.4288 196.248 14.6207 185.872 14.8428 183.19L19.8051 120.71L21.0767 101.663C21.302 98.3458 21.3603 94.8787 21.9204 91.6067C27.4573 89.5193 32.9687 87.3649 38.4534 85.144C32.0538 78.6356 25.9659 71.9967 20.128 64.9795C17.277 61.5526 13.9475 57.798 11.99 53.7715C11.4965 52.7563 11.1468 51.6823 11.1595 50.5415C11.1759 49.083 11.7972 47.6967 12.875 46.7141C14.6851 45.0441 17.4918 44.6836 19.8678 44.8439C24.1699 45.1342 31.9529 47.6985 35.781 49.7271C35.8709 49.4428 36.0957 49.1759 36.2609 48.9267Z" fill="black"/>
<path d="M72.6489 35.8159C72.6407 37.602 72.6916 39.254 73.0789 41.006C72.489 40.2412 71.8927 39.4813 71.29 38.7266C71.7142 37.8738 72.1727 37.0088 72.3537 36.0645L72.6489 35.8159Z" fill="#FAC88A"/>
<path d="M36.2611 48.9268C37.2505 49.6998 37.8422 50.8256 38.4741 51.8889C37.621 51.1019 36.7724 50.3396 35.7812 49.7272C35.8711 49.4429 36.096 49.176 36.2611 48.9268Z" fill="#D3BD9E"/>
<path d="M72.2761 29.2261C72.7027 30.4123 73.0028 31.3479 72.9921 32.6264L72.6682 32.5898C72.6908 31.4049 72.3733 30.3909 71.9961 29.2864L72.2761 29.2261Z" fill="#F5935A"/>
<path d="M72.668 32.5898L72.9918 32.6264C72.9093 33.6569 72.9035 34.8183 72.6488 35.8162L72.3535 36.0648C72.5366 34.9006 72.6716 33.7696 72.668 32.5898Z" fill="#675141"/>
<path d="M164.971 84.5601L165.069 84.5985C165.138 84.6816 165.246 84.7438 165.274 84.8477C165.502 85.7154 165.488 89.4229 165.548 90.5615C165.879 96.2793 166.177 101.999 166.442 107.72L169.886 168.357C154.2 174.743 138.212 180.449 122.374 186.452C103.739 193.645 85.0362 200.662 66.2686 207.503L65.5215 180.718L64.7092 150.754C64.3814 141.256 63.8327 131.713 63.8086 122.209C70.8639 119.636 77.9726 117.163 84.9493 114.385C85.1413 114.738 85.3326 115.103 85.5557 115.437C86.1385 116.311 86.9536 117.193 88.0395 117.373C89.1025 117.549 89.9374 117.034 90.7509 116.422C94.1006 124.188 97.6694 133.316 104.61 138.568C109.757 142.463 115.614 143.636 121.956 142.758C129.871 141.663 137.094 137.06 141.877 130.732C150.872 118.832 151.513 104.565 149.56 90.3869C151.626 89.5 153.807 88.7824 155.908 87.9698C158.914 86.8071 161.901 85.5463 164.971 84.5601Z" fill="#F9F3EA"/>
<path d="M132.864 17.7373C133.959 17.7504 135.027 17.8082 136.097 18.0586C140.158 19.0092 143.221 21.9837 145.341 25.4592C151.686 35.8634 151.988 51.1852 151.618 62.9705C151.501 66.7258 151.49 70.9122 150.598 74.5681C146.372 75.9837 142.279 77.7808 138.062 79.2268C137.377 78.4206 136.668 77.6357 135.887 76.9209C131.038 72.4871 124.624 70.702 118.141 71.0316C113.256 71.2803 107.913 72.8134 104.523 76.5453C104.95 76.9867 105.44 77.3387 105.929 77.7076C107.544 77.4846 109.137 77.0858 110.754 76.8579C117.307 75.9347 123.18 76.6364 129.144 79.5208C130.195 80.1098 131.178 80.7189 132.128 81.4614C121.581 85.3239 110.932 89.1739 100.531 93.407C98.4057 90.8019 95.789 88.9083 92.7129 87.5905C93.8488 82.902 95.3344 78.3027 96.6869 73.6736C101.461 57.3387 107.296 39.0309 118.672 25.9921C122.391 21.7301 127.037 18.1299 132.864 17.7373Z" fill="#FBAE6D"/>
<path d="M120.186 48.5074C123.806 48.1061 127.72 48.6948 131.135 49.9254C136.656 51.9141 141.149 56.0353 143.605 61.3655C144.363 63.0099 147.052 68.8346 146.465 70.4159L146.323 70.514C145.697 70.9424 143.252 67.7399 142.826 67.27C139.983 64.1726 136.552 61.6729 132.732 59.917C126.08 56.9244 118.55 56.7397 111.6 58.8204C110.173 59.2476 107.832 60.4356 106.405 60.2293C106.069 60.1809 106.032 60.1397 105.841 59.8844C105.862 59.6751 105.853 59.651 105.936 59.4246C106.56 57.7041 110.176 55.6435 111.694 54.8016C115.077 53.2072 118.648 52.1856 122.416 52.255C130.408 52.4022 137.147 56.4302 142.547 62.0608C141.689 60.2823 140.615 58.6163 139.351 57.0993C135.586 52.6472 130.147 50.3218 124.401 49.8517C120.338 49.5189 115.384 50.1801 111.746 52.1521C109.996 53.1012 108.493 54.4692 106.989 55.7544L106.806 55.6291C106.702 54.8988 106.937 54.333 107.387 53.755C109.883 50.546 116.345 48.8983 120.186 48.5074Z" fill="black"/>
<path d="M120.148 53.683C122.8 53.1672 126.195 53.8003 128.746 54.5638C135.01 56.438 140.948 60.9214 144.071 66.709C141.776 64.3672 139.333 62.2788 136.57 60.5025C136.119 60.2435 135.666 59.9891 135.209 59.7396C126.138 54.7945 117.911 55.6022 108.366 58.405C112.004 55.8319 115.694 54.1982 120.148 53.683Z" fill="#EB7F50"/>
<path d="M129.166 29.1622C129.277 29.1528 129.389 29.1449 129.5 29.1433C134.502 29.0247 139.33 30.9816 142.838 34.5495C143.717 35.4374 144.563 36.4309 145.239 37.483C146.24 39.0391 148.24 43.1429 148.03 44.9924C147.98 45.4308 147.934 45.4655 147.599 45.6992C147.344 45.6672 147.174 45.6965 146.97 45.5259C146.136 44.8254 145.411 43.8498 144.67 43.0445C143.541 41.805 142.322 40.6509 141.022 39.5921C135.642 35.0681 130.117 33.1555 123.078 34.1723C121.606 34.385 119.716 35.2533 118.291 35.1823C117.837 35.1598 117.592 34.9782 117.315 34.6418C117.266 34.1315 117.456 33.8125 117.769 33.4325C120.34 30.3143 125.39 29.4661 129.166 29.1622Z" fill="black"/>
<path d="M127.919 30.5296C131.251 30.1347 134.843 30.8297 137.808 32.3903C141.926 34.5576 144.791 38.2315 146.144 42.6449C144.601 41.0303 142.974 39.5337 141.281 38.08C140.08 37.0953 138.799 36.2126 137.452 35.4418C131.485 32.0905 125.323 32.0987 118.885 33.901C121.634 31.8385 124.514 30.8736 127.919 30.5296Z" fill="#F5935A"/>
<path d="M40.9729 113.278C47.8819 116.69 54.9562 120.233 62.3619 122.427C63.2528 146.068 63.9594 169.715 64.4813 193.367C64.7601 202.027 64.9533 210.689 65.0602 219.352L64.3031 218.51C61.8007 215.522 59.1919 212.64 56.6481 209.69C50.7567 202.842 44.9243 195.942 39.1523 188.992C39.1694 180.861 39.6139 172.686 39.8129 164.552L40.9729 113.278Z" fill="#D3BD9E"/>
<path d="M22.2788 104.254C24.0175 105.158 25.6447 106.248 27.4176 107.116C31.4388 109.085 35.6041 110.75 39.623 112.725L37.8308 188.639C34.6886 189.877 31.4869 190.977 28.3072 192.116C23.9509 193.646 19.6072 195.213 15.2764 196.814C15.4151 192.402 15.8245 188.018 16.1566 183.619C16.7543 175.199 17.4376 166.786 18.2065 158.38L22.2788 104.254Z" fill="#D3BD9E"/>
<path d="M63.2195 107.407C59.5334 104.279 56.148 100.659 52.6898 97.2811C40.4606 85.3361 27.8826 73.3196 17.5614 59.6501C15.9112 57.4645 13.9409 55.1209 12.9411 52.5484C12.4852 51.3751 12.3173 50.0597 12.8778 48.8888C13.4007 47.7962 14.4083 47.103 15.515 46.689C19.8668 45.061 26.2117 47.2112 30.2445 49.0372C31.1027 50.6295 31.9394 52.2337 32.7541 53.8485C31.578 52.2559 30.1668 50.801 28.4646 49.7633C25.8726 48.1829 23.0715 48.4482 20.2607 49.1182C20.4723 49.6386 20.7333 50.1225 21.0265 50.6009C25.2294 57.4566 29.4355 58.1836 36.7479 59.9279C33.8534 60.1038 30.2584 60.4279 27.8328 62.1966C27.3972 62.5144 27.1203 62.7746 27.0388 63.3258C27.1943 63.6585 27.2592 63.771 27.58 63.9779C30.074 65.5857 37.6099 65.7691 40.5934 65.4004C41.8103 65.2502 42.8624 64.8642 44.0394 64.6159C44.405 64.774 44.6902 64.9635 45.0147 65.1899C45.345 64.9245 45.5427 64.8371 45.6786 64.4288C45.5997 64.2137 45.5967 64.1814 45.4672 63.9571C44.2396 61.8283 40.3859 60.5867 38.1815 59.8926L38.1949 59.7323L38.3747 59.4907C37.9987 59.0544 37.4097 58.8487 36.8975 58.6068L37.1638 58.1218C39.0157 59.0453 40.9151 59.9569 42.8798 60.615C45.3554 64.1339 48.9817 64.5793 52.1849 66.8565C53.9198 68.0899 55.265 69.7867 56.9612 71.0369C57.0142 71.0399 57.0675 71.0436 57.1206 71.046C57.5023 71.064 57.8375 71.1145 58.1498 70.8531C58.3622 70.6752 58.5523 70.4491 58.7384 70.2441C59.4325 70.6167 59.924 71.8114 60.4612 72.443C60.9389 73.0045 61.4861 73.4993 62.0492 73.974C64.6412 75.9112 67.391 77.6276 70.2697 79.1053C69.9299 79.4298 69.61 79.7689 69.2188 80.0309C69.3858 80.3368 69.3282 80.3746 69.6743 80.4944C70.3443 80.7268 71.1526 81.4776 71.8619 81.172C71.8394 80.8097 71.7334 80.5431 71.4634 80.2808C71.3245 80.1455 71.2422 80.1019 71.089 80.0041C70.777 80.0867 70.4659 80.1732 70.1563 80.2643C70.1527 79.9008 70.1804 79.6979 70.4339 79.4155C70.9384 78.8539 71.4637 78.6534 71.8367 77.9405C72.2565 79.208 72.6078 80.5885 73.3708 81.6948C74.3113 83.0586 75.4566 84.2329 76.6026 85.4236C72.8531 82.9334 70.2169 81.4779 65.6 82.427C64.2371 82.7073 61.1735 83.3103 60.417 84.575C60.2665 84.827 60.2863 84.9492 60.2637 85.2319C60.637 86.0372 61.4989 86.359 62.289 86.6451C65.5677 87.8318 69.3602 88.7154 72.8635 88.6737L73.1453 88.9339L73.0179 89.0597C71.2565 89.3007 66.7453 90.7145 65.8474 92.283C65.7383 92.4734 65.6777 92.6806 65.7743 92.8829C66.3054 93.9954 68.4833 94.5438 69.5954 94.8552C72.7068 95.7263 75.8984 95.8186 79.0279 94.9883L78.984 95.3241C76.91 95.868 75.2857 96.2199 73.9564 98.0629C75.3668 99.5629 77.5633 100.457 79.4968 101.026C77.6434 101.836 75.6937 102.503 73.8104 103.25C70.2937 104.67 66.7633 106.056 63.2195 107.407Z" fill="#FBAE6D"/>
<path d="M37.1642 58.1216C39.0161 59.0451 40.9156 59.9567 42.8802 60.6148C45.3558 64.1337 48.9822 64.5791 52.1853 66.8564C53.9202 68.0897 55.2654 69.7865 56.9616 71.0367L56.7971 71.1945C54.802 70.7393 52.7451 70.6427 50.7305 71.0403L48.8926 71.4526L48.7762 71.1384C45.9329 71.5382 43.0499 71.5714 40.198 71.2372C38.9814 71.0955 36.0037 70.9821 35.2627 70.0483C35.3474 69.494 35.6685 69.1034 36.047 68.7073C38.3553 66.2906 42.1099 65.559 45.3085 65.4338L45.0151 65.1897C45.3454 64.9243 45.5432 64.8369 45.679 64.4286C45.6001 64.2135 45.5971 64.1812 45.4676 63.957C44.24 61.8281 40.3863 60.5865 38.1819 59.8924L38.1953 59.7322L38.3751 59.4905C37.9991 59.0542 37.4101 58.8486 36.898 58.6066L37.1642 58.1216Z" fill="black"/>
<path d="M37.1647 58.1216C39.0166 59.0451 40.916 59.9567 42.8807 60.6148C45.3563 64.1337 48.9826 64.5791 52.1858 66.8564C53.9207 68.0897 55.2659 69.7865 56.9621 71.0367L56.7976 71.1945C54.8025 70.7393 52.7455 70.6427 50.7309 71.0403L50.7306 70.7C51.734 70.3917 52.7519 70.2341 53.3839 69.3295C53.4317 68.91 53.4463 68.8027 53.2007 68.4295C52.0679 66.7089 47.2426 65.6571 45.309 65.4338L45.0156 65.1897C45.3459 64.9243 45.5436 64.8369 45.6795 64.4286C45.6006 64.2135 45.5976 64.1812 45.4681 63.957C44.2405 61.8281 40.3868 60.5865 38.1824 59.8924L38.1958 59.7322L38.3756 59.4905C37.9996 59.0542 37.4106 58.8486 36.8984 58.6066L37.1647 58.1216Z" fill="#FAC88A"/>
<path d="M48.7764 71.1386L50.7303 70.7002L50.7306 71.0405L48.8928 71.4528L48.7764 71.1386Z" fill="#CE7A4C"/>
<path d="M43.605 66.781C46.7013 66.3846 49.5726 67.2137 52.0985 68.9845C50.1202 69.8955 48.1638 70.1975 46.0081 70.3723C42.889 70.4123 40.0164 70.1527 36.9668 69.4909C39.0676 67.9007 40.9917 67.1098 43.605 66.781Z" fill="#FADD97"/>
<path d="M61.5005 74.1887L62.0498 73.9736C64.6418 75.9108 67.3916 77.6271 70.2703 79.1049C69.9306 79.4294 69.6106 79.7685 69.2194 80.0305L69.1152 79.965C69.1033 80.0518 69.0948 80.1393 69.0793 80.2255C68.9985 80.6661 68.8925 80.8169 68.511 81.0561C67.72 81.5518 66.4861 81.713 65.572 81.9025C62.0824 82.6265 57.2863 83.4701 53.8232 82.358C53.2584 82.1764 52.8873 81.9558 52.6213 81.4022C52.592 80.976 52.6499 80.6877 52.8809 80.3288C54.344 78.0571 57.3933 77.1805 59.8661 76.6503L59.577 76.235C59.6251 76.2155 59.6745 76.1988 59.7214 76.1768C60.6903 75.7256 61.1245 75.1671 61.5005 74.1887Z" fill="black"/>
<path d="M61.5006 74.1887L62.05 73.9736C64.642 75.9108 67.3918 77.6271 70.2705 79.1049C69.9307 79.4294 69.6108 79.7685 69.2196 80.0305L69.1154 79.965C68.9503 79.4406 68.737 79.146 68.3281 78.7856C66.0423 76.7713 62.7636 76.5044 59.8663 76.6503L59.5771 76.235C59.6253 76.2155 59.6746 76.1988 59.7216 76.1768C60.6905 75.7256 61.1247 75.1671 61.5006 74.1887Z" fill="#FAC88A"/>
<path d="M60.5943 77.7521C61.5252 77.6634 62.4474 77.6469 63.3761 77.774C65.1851 78.022 66.614 78.7511 67.7112 80.2115C65.6546 80.8123 63.5516 81.1853 61.431 81.4726C58.8857 81.7493 56.2946 81.7176 53.8379 80.9281C55.5932 78.862 57.9829 78.0814 60.5943 77.7521Z" fill="#FADD97"/>
<path d="M56.9617 71.0364C57.0147 71.0395 57.0681 71.0431 57.1211 71.0456C57.5029 71.0636 57.838 71.1141 58.1503 70.8527C58.3627 70.6748 58.5528 70.4487 58.739 70.2437C59.4331 70.6163 59.9245 71.811 60.4617 72.4426C60.9394 73.0041 61.4866 73.4989 62.0497 73.9736L61.5004 74.1887C61.1244 75.1671 60.6902 75.7256 59.7213 76.1768C59.6744 76.1988 59.625 76.2155 59.5769 76.235C56.225 77.0025 52.5773 77.3544 49.1657 76.7783C47.6828 76.5278 45.2712 76.058 44.3553 74.7756C44.3007 74.42 44.2563 74.2798 44.4205 73.9432C45.0582 72.6364 47.5862 71.8649 48.8927 71.4523L50.7306 71.0401C52.7452 70.6425 54.8021 70.7391 56.7972 71.1943L56.9617 71.0364Z" fill="black"/>
<path d="M56.9614 71.0364C57.0144 71.0395 57.0677 71.0431 57.1208 71.0456C57.5025 71.0636 57.8377 71.1141 58.15 70.8527C58.3624 70.6748 58.5525 70.4487 58.7386 70.2437C59.4327 70.6163 59.9242 71.811 60.4614 72.4426C60.9391 73.0041 61.4863 73.4989 62.0494 73.9736L61.5 74.1887C59.7335 72.7229 59.1031 71.9395 56.7969 71.1943L56.9614 71.0364Z" fill="#FBAE6D"/>
<path d="M52.6547 71.9655C54.0526 71.9301 55.4828 71.9856 56.8323 72.389C58.3701 72.8491 59.2335 73.4374 60.0059 74.8356C57.8043 75.6318 55.5788 75.761 53.2623 75.8554C50.5094 75.8591 48.053 75.4627 45.501 74.4441C47.7218 72.9003 49.9738 72.2089 52.6547 71.9655Z" fill="#FADD97"/>
<path d="M164.687 70.8521L164.929 71.0081C164.841 74.9928 164.833 79.0814 165.138 83.0569C163.176 83.6812 161.255 84.506 159.333 85.2476L149.163 89.172C148.76 88.4481 148.341 87.7488 147.739 87.1684C146.788 86.2516 145.603 85.7229 144.271 85.7683C142.513 85.8287 140.824 86.8256 139.68 88.1205C138.239 89.7518 137.805 91.5458 137.951 93.6594C132.663 95.8968 127.219 97.8474 121.869 99.936C113.426 103.233 105.013 106.59 96.4687 109.62C95.5964 108.324 94.693 106.931 93.0861 106.502C91.5115 106.081 89.6227 106.696 88.2474 107.497C86.0302 108.787 85.387 110.513 84.7968 112.856C79.8672 115.236 74.1894 117.028 69.0182 118.908C67.2818 119.585 65.5079 120.189 63.7563 120.827C63.5796 116.81 63.4644 112.79 63.4102 108.769C68.1697 107.203 72.7964 105.064 77.5218 103.362C81.2953 102.003 85.1033 100.728 88.8531 99.3056C93.8332 97.4174 98.7579 95.3828 103.744 93.508L138.468 80.5524L154.211 74.5942C157.675 73.292 161.144 71.9242 164.687 70.8521Z" fill="#D3BD9E"/>
<path d="M138.271 94.9092C138.319 94.9317 138.373 94.9442 138.415 94.9771C138.551 95.0856 138.647 95.237 138.768 95.3638C139.856 96.5152 140.807 96.7946 142.336 96.8485C142.504 97.5987 142.631 98.3576 142.717 99.1218C143.71 108.211 141.53 117.117 135.739 124.248C131.732 129.181 126.571 132.239 120.2 132.86C115.071 133.36 110.098 131.78 106.131 128.519C101.056 124.542 98.9604 116.864 96.9814 110.983C106.042 107.549 115.077 104.048 124.085 100.48C128.786 98.6489 133.719 97.0621 138.271 94.9092Z" fill="#F9F3EA"/>
<path d="M65.4934 64.8593C64.4909 61.8426 62.821 58.8493 61.4968 55.9511C58.2403 48.8196 55.0469 41.6594 51.9168 34.4716C50.2264 30.5021 48.2846 26.4435 47.2773 22.2349C46.7758 20.1399 46.3995 17.3071 47.642 15.4006C48.15 14.6211 48.9388 14.1282 49.8471 13.9505C52.1816 13.4938 54.7717 14.9309 56.6715 16.1509C58.141 17.0947 63.654 21.0591 64.1393 22.6155C64.4562 23.6308 64.2237 25.025 64.4757 26.1341L64.5187 26.3167L64.2198 26.4267C63.065 23.3927 61.3999 20.1315 58.2202 18.7903C57.5365 18.5019 56.4058 18.1432 55.6931 18.4504C55.1096 19.7053 55.7434 23.1121 56.2376 24.4664C57.0831 26.7834 58.3966 28.5228 60.4426 29.9104C58.8719 29.2454 54.9908 27.9101 53.3168 27.9565C53.0801 28.2104 52.9698 28.3184 53.0243 28.7033C53.2425 30.2461 57.8302 34.6544 59.0535 35.6739C60.091 36.5413 61.2067 37.3097 62.3868 37.97C63.0065 38.3097 63.6412 38.573 64.3033 38.8179L63.4623 39.0181C61.8862 38.842 60.488 38.7628 58.9569 39.2987C60.4523 42.8575 64.285 45.564 67.7502 46.9985C68.4702 47.2968 69.2145 47.5329 69.957 47.7669C68.621 47.7806 66.6353 47.6849 65.6134 48.6868C65.5211 49.0228 65.4724 49.0889 65.6539 49.4089C66.618 51.1063 71.0643 54.158 72.9646 54.8341C74.6035 55.2339 77.8463 55.7403 79.2305 56.3545C79.5495 56.389 79.8899 56.4173 80.197 56.2969C80.5967 56.1403 80.7869 55.7016 80.9733 55.3466L81.278 54.6138C82.2612 56.5977 84.3215 57.8603 85.5446 59.707C86.7788 61.5705 86.7554 63.8422 87.7438 65.7995C88.4607 67.2194 89.2535 66.7224 90.316 67.408C90.759 67.6938 91.0055 68.6072 91.3641 69.053C92.5676 70.5484 93.9823 71.9847 95.3418 73.3427C94.921 74.984 94.4533 76.5903 93.9241 78.2C93.5929 77.9456 93.2519 77.7131 92.8997 77.4895C90.5216 75.9791 85.9644 73.6065 83.0147 74.3932C82.4821 74.5352 81.8725 74.8731 81.5854 75.3509L81.6781 75.6166C82.721 76.0322 84.2332 75.3195 85.3822 75.6272C88.2825 76.4039 90.9384 77.7281 93.5734 79.1375C92.9683 81.4529 92.2724 83.7383 91.5768 86.0277C89.1079 83.6911 86.3879 81.4574 83.6735 79.4124C81.877 78.0589 79.9871 76.7911 78.247 75.3676C77.112 74.4392 76.2814 73.1532 75.1751 72.1806C73.7422 70.9207 72.0588 70.1039 70.543 68.9805C68.7995 67.6889 67.2724 66.138 65.4934 64.8593Z" fill="#FBAE6D"/>
<path d="M72.9652 54.8345C74.6041 55.2342 77.8469 55.7406 79.2311 56.3549L79.2167 56.5688C80.0443 56.8015 80.8587 57.2537 81.551 57.7613C83.2249 58.9886 86.0932 61.8005 86.3461 63.9504C86.3943 64.3593 86.3026 64.7432 86.0009 65.0412C85.2806 65.7523 83.7173 65.3821 82.8081 65.2996C83.7944 65.6329 84.7983 65.9662 85.7367 66.419C87.6596 67.3462 91.5895 69.9982 92.2324 72.1258C92.3933 72.6584 92.3055 73.2924 91.9923 73.7553C91.7135 74.1672 91.3241 74.3911 90.8461 74.4993C88.3427 75.0648 82.494 72.3305 80.4291 70.9332C79.2762 70.1532 76.1696 67.9104 76.0974 66.3955C76.0788 66.0022 76.243 65.7225 76.5373 65.48C77.5605 64.6369 80.1442 64.7332 81.4059 64.859C79.168 63.9212 76.8874 62.9315 74.8228 61.6436C73.0645 60.5468 69.4987 58.073 69.0137 55.9685C69.0844 55.7095 69.0703 55.5599 69.2906 55.3814C70.0889 54.7351 71.9033 54.9436 72.8817 55.017L72.9652 54.8345Z" fill="black"/>
<path d="M72.9653 54.8345C74.6042 55.2342 77.847 55.7406 79.2312 56.3549L79.2169 56.5688C77.5292 56.3893 74.4245 55.7117 72.8818 55.017L72.9653 54.8345Z" fill="#2D1F1B"/>
<path d="M70.4521 56.2174C74.1684 56.066 78.0108 56.7037 81.0836 58.9407C82.8206 60.2055 84.7505 62.245 85.0838 64.4367C84.891 64.4336 84.816 64.4373 84.6357 64.4184C80.0285 63.9321 73.3714 59.7926 70.4521 56.2174Z" fill="#FADD97"/>
<path d="M79.8691 66.018C81.5811 65.933 83.3971 66.6097 84.9132 67.3516C86.4147 68.0868 90.535 70.6882 90.8634 72.3927C90.9408 72.7942 90.8689 72.8683 90.6529 73.1806C90.1776 73.4204 89.7111 73.3085 89.2029 73.2519C84.5564 72.1745 80.2585 70.3439 77.3643 66.3888C78.193 66.2218 79.0309 66.1237 79.8691 66.018Z" fill="#FADD97"/>
<path d="M169.93 173.817L170.094 173.869C170.555 174.839 170.449 178.861 170.492 180.138C135.895 193.01 101.374 206.088 66.9324 219.37C66.723 219.437 66.8531 219.411 66.5354 219.397C66.1551 218.105 66.4299 214.543 66.4168 212.999C70.6267 211.125 75.1093 209.655 79.4288 208.04L101.962 199.574L169.93 173.817Z" fill="#D3BD9E"/>
<path d="M37.8663 190.108L38.1435 190.112C39.4845 190.885 51.3712 205.506 53.6086 208.157C56.5406 211.631 59.5673 215.021 62.4497 218.536C57.5037 216.405 52.6238 214.07 47.7217 211.836L16.4043 197.784C19.0529 196.971 21.6571 195.94 24.2639 195L37.8663 190.108Z" fill="#D3BD9E"/>
<path d="M143.743 87.1627C144.169 87.1017 144.559 87.0606 144.988 87.128C145.907 87.2721 146.691 87.8172 147.215 88.5743C149.976 92.5627 149.202 108.221 148.235 113.032C146.383 122.253 141.496 131.629 133.484 136.897C127.663 140.725 120.195 142.723 113.281 141.247C104.371 139.345 99.3611 131.759 95.6554 124.085C94.5007 121.694 93.3663 119.249 92.452 116.754C91.6979 114.696 92.5757 113.57 91.1628 111.457C90.7527 110.843 90.2366 110.334 89.4685 110.242C89.0413 110.191 88.8688 110.302 88.5258 110.536C87.3762 112.57 88.863 114.828 88.6933 115.836L88.4593 115.999C88.0562 115.997 87.7324 115.894 87.4045 115.658C86.8137 115.234 86.3942 114.402 86.2616 113.706C85.9703 112.176 86.4259 111.101 87.3015 109.866C87.85 109.31 88.5166 108.738 89.3314 108.685C90.6452 108.599 91.6125 109.802 92.2329 110.803C93.3816 112.655 93.9919 114.985 94.7322 117.029C96.9808 123.237 100.04 129.853 105.227 134.143C109.595 137.755 114.988 138.919 120.545 138.379C127.545 137.721 133.98 134.253 138.378 128.767C141.32 125.168 143.731 120.901 145.14 116.464C147.092 110.31 147.403 102.376 146.744 95.9618C146.55 94.0663 146.235 89.6084 144.519 88.4637C144.065 88.1608 143.648 88.1615 143.136 88.28C139.95 89.0161 142.326 93.7674 141.476 95.1827C141.095 95.2826 140.802 95.3469 140.428 95.1644C139.964 94.9371 139.669 94.4648 139.498 93.9944C139.058 92.7866 139.192 91.375 139.75 90.2303C140.579 88.5317 142.02 87.7212 143.743 87.1627Z" fill="#FBAE6D"/>
<path d="M169.726 169.86L169.903 169.931C170.169 170.608 170.14 171.468 170.192 172.192C167.491 173.45 164.599 174.432 161.816 175.504L145.939 181.592L86.6559 203.922C80.0115 206.434 73.2408 208.742 66.6632 211.409L66.4862 211.351C66.2519 210.612 66.2972 209.752 66.2646 208.98L106.943 193.652C127.911 185.829 148.839 177.898 169.726 169.86Z" fill="#FBAE6D"/>
<path d="M41.4728 100.421C48.3021 103.159 55.0729 106.373 62.0298 108.743C62.038 110.379 62.5511 120.307 62.1733 121.03C54.8282 118.496 48.0419 115.048 41.0039 111.821C41.1255 108.032 41.1392 104.196 41.4728 100.421Z" fill="#D3BD9E"/>
<path d="M39.2403 86.3629C39.2506 86.3611 39.261 86.3562 39.2714 86.3577C39.275 86.358 39.6419 86.4211 39.648 86.4235C40.1565 86.6499 42.3274 89.159 42.8904 89.7111C48.6633 95.3728 54.4725 101.415 60.5163 106.754C57.0697 105.204 53.5152 103.835 50.0293 102.371C46.49 100.855 42.8804 99.4773 39.3207 98.0065C34.4338 95.9871 29.5661 93.8923 24.5859 92.1114C29.4973 90.2711 34.315 88.18 39.2403 86.3629Z" fill="#A3694E"/>
<path d="M143.441 89.4839C143.793 89.6304 144.043 89.8044 144.261 90.1195C145.827 92.3769 145.809 102.077 145.626 105.106C145.483 107.376 145.208 109.637 144.802 111.875C143.4 119.888 138.936 128.167 132.145 132.882C126.966 136.478 120.191 138.03 113.974 136.894C104.417 135.146 99.4189 125.846 96.2251 117.546C95.145 114.738 94.4799 111.796 92.7517 109.29C92.3008 108.844 91.8431 108.462 91.6104 107.858L92.0119 107.529C92.8663 107.728 93.7167 108.199 94.2806 108.88C96.1782 111.168 96.9342 114.97 97.9284 117.764C98.6221 119.713 99.4094 121.667 100.416 123.477C102.326 126.966 105.169 129.856 108.626 131.822C113.625 134.613 119.561 134.81 124.976 133.228C131.831 131.226 137.021 125.799 140.344 119.635C143.904 113.031 145.578 103.124 143.392 95.864C143.665 95.4098 143.957 94.9317 144.133 94.4293C144.733 92.7114 143.471 91.961 142.859 90.578C142.895 90.1003 143.154 89.8407 143.441 89.4839Z" fill="#FBAE6D"/>
<path d="M23.0549 93.0029C28.7997 95.0072 34.4308 97.4654 40.0413 99.8133C39.7899 103.574 39.8308 107.354 39.5593 111.112C33.7513 108.553 27.6327 106.186 22.3994 102.558C22.7462 99.4008 22.8697 96.1747 23.0549 93.0029Z" fill="#D3BD9E"/>
<path d="M118.758 72.2729C119.294 72.2495 119.83 72.2458 120.367 72.2613C126.972 72.4771 132.285 74.8427 136.817 79.6403L133.474 80.9197C131.658 79.5086 129.798 78.3944 127.714 77.4249C120.978 74.4429 114.051 75.0453 106.993 76.0989C110.419 73.378 114.474 72.5292 118.758 72.2729Z" fill="#EB7F50"/>
<path d="M103.766 47.9985L103.894 48.2127C102.047 52.6112 100.402 57.0816 98.7224 61.5462L96.1566 58.1919C95.3321 57.18 93.1756 55.3552 92.7822 54.2699C92.6241 53.8336 92.4327 53.4268 92.2344 53.0073C96.0168 51.2364 99.9506 49.7151 103.766 47.9985Z" fill="#A3694E"/>
<path d="M153.081 62.5928C156.613 64.9672 160.213 67.2441 163.71 69.6704C162.568 70.1198 161.383 70.4891 160.224 70.8918L152.134 73.8927C152.819 70.2023 152.878 66.3362 153.081 62.5928Z" fill="#A3694E"/>
<path d="M87.6558 48.7114C89.0434 50.0505 90.2368 51.999 90.9394 53.7948C92.3733 57.4611 92.2158 61.7155 90.6503 65.3044C90.4373 65.6722 90.2853 65.9196 89.9255 66.1691C89.682 66.1746 89.5674 66.2297 89.3621 66.0701C88.8298 65.656 88.5985 64.8973 88.395 64.2767C86.7302 59.2012 88.0809 54.0806 87.6747 48.9314L87.6558 48.7114Z" fill="#FAC88A"/>
<path d="M39.0596 50.7954C41.2588 51.4441 44.6168 53.268 46.1883 54.9346C48.2998 57.1743 49.7105 60.9893 49.6633 64.0536C49.4933 64.0265 49.472 64.0271 49.3163 63.989C43.9733 62.6837 41.5409 54.98 39.0596 50.7954Z" fill="#FADD97"/>
<path d="M79.124 77.7954C79.2483 77.8582 79.2733 77.8682 79.4092 77.9523C85.2251 81.5537 85.931 86.2965 87.1894 92.5533C86.7229 92.4088 86.3601 92.2586 85.9853 91.935C85.1245 91.1919 84.1535 90.585 83.3622 89.7599C80.1688 86.4309 80.5286 81.8563 79.124 77.7954Z" fill="#FADD97"/>
<path d="M80.4102 40.623C82.0262 42.1188 83.6886 44.0413 84.5542 46.0827C85.7617 48.9297 85.5636 51.8167 84.4159 54.6314C84.1779 55.0378 83.8869 55.4239 83.6191 55.8117C79.9836 51.4867 80.5125 45.8847 80.4102 40.623Z" fill="#FAC88A"/>
<path d="M67.4375 92.6483C67.8979 92.2733 68.4101 91.921 68.9317 91.6343C71.7132 90.1051 75.477 89.5658 78.5379 90.4918C79.7191 90.8495 80.9556 91.5274 81.5616 92.6407L81.4156 92.8165C80.9544 93.4984 80.1652 93.7056 79.409 93.9189C75.558 95.0045 70.9362 94.6145 67.4375 92.6483Z" fill="#FADD97"/>
<path d="M48.5781 55.8398C51.3809 56.7701 54.3367 59.5668 55.9452 61.9933C57.4521 64.2672 58.1962 66.8126 57.6502 69.5197L57.4235 69.5861C53.1033 67.6617 50.8937 59.9827 48.7262 56.1022L48.5781 55.8398Z" fill="#FADD97"/>
<path d="M55.2266 29.5933C58.8737 30.3426 62.2907 31.9479 65.1959 34.2766C66.5615 35.3927 69.2513 37.6577 69.4335 39.5044C69.2751 39.555 69.2663 39.569 69.0722 39.5675C68.2736 39.562 67.0192 38.8277 66.2815 38.5099C61.0665 36.2635 58.6906 34.0249 55.2266 29.5933Z" fill="#FADD97"/>
<path d="M86.876 83.7085C88.1767 84.5555 89.4975 85.7292 90.4853 86.9257C92.4856 89.3489 93.5569 93.0941 93.2701 96.2086C92.5301 96.4612 91.9253 96.7062 91.1663 96.403C87.6633 95.0039 88.3254 86.9799 86.9607 83.895C86.9333 83.8325 86.9043 83.7707 86.876 83.7085Z" fill="#FADD97"/>
<path d="M65.2021 23.3789C67.1165 24.4329 69.9242 27.7192 70.8206 29.7056C71.88 32.0525 71.6765 34.2792 70.8087 36.6268L70.5019 37.1905L70.2907 37.2368C70.224 37.1914 70.1555 37.1484 70.0903 37.1009C69.4382 36.6253 69.0162 35.6649 68.6564 34.9556C66.746 31.1894 65.9151 27.494 65.2021 23.3789Z" fill="#FAC88A"/>
<path d="M71.4287 71.0913C73.6365 72.1778 75.723 74.3 76.9963 76.3846C78.5919 78.9976 78.3948 81.1774 77.7184 84.0253C77.616 84.1801 77.4905 84.3129 77.3692 84.4528C76.8278 84.2824 76.3912 83.6478 76.0069 83.2298C72.0232 78.8937 73.876 74.931 71.4287 71.0913Z" fill="#FAC88A"/>
<path d="M60.6387 39.9258C63.766 40.0248 66.7723 41.1247 69.5325 42.5412C71.5401 43.5714 73.4048 44.8544 74.1339 47.1C73.3938 47.2435 72.6845 47.2249 71.9411 47.1326C67.4268 46.5713 63.3473 43.4394 60.6387 39.9258Z" fill="#FADD97"/>
<path d="M74.1786 31.3101C75.4068 32.4996 76.4393 34.1123 77.0506 35.7094C78.1072 38.469 78.372 42.8038 77.1398 45.5338L76.7008 45.6989C76.3568 45.5487 76.1048 45.4147 75.8589 45.1133C75.3126 44.4436 75.0125 43.5442 74.7428 42.7322C73.4827 38.9349 73.7569 35.2162 74.1786 31.3101Z" fill="#FADD97"/>
<path d="M22.996 49.8857C23.865 49.8693 24.7513 49.8464 25.61 50.0024C28.866 50.5935 30.8867 53.5664 32.7968 55.9801C33.3355 56.6611 33.9781 57.2787 34.4823 57.9792L34.0804 57.9856C28.1064 56.612 25.8151 55.506 22.3525 50.2681L22.4065 50.0262L22.996 49.8857Z" fill="#FADD97"/>
<path d="M63.335 65.0068C65.795 65.9087 68.7831 68.958 70.1088 71.2014C71.1569 72.9747 71.7172 75.62 71.1907 77.6492C70.8059 77.7845 70.6938 77.8668 70.2934 77.7245C67.4991 76.73 65.813 70.7676 64.8264 68.2447C64.3901 67.1287 63.891 66.0681 63.335 65.0068Z" fill="#FAC88A"/>
<path d="M66.4457 83.3724C66.9509 83.331 67.4618 83.2871 67.9688 83.2974C71.3691 83.3657 74.4431 85.0028 76.7834 87.39C75.2143 87.4866 73.632 87.44 72.0602 87.4317C68.3701 87.22 65.052 86.4933 61.6475 85.0186C63.1377 84.1643 64.769 83.692 66.4457 83.3724Z" fill="#FADD97"/>
<path d="M93.3564 56.9624C95.2074 58.6488 97.0925 61.1442 98.3597 63.3002C97.7616 65.6241 96.9834 67.9013 96.2857 70.1968C96.1242 70.8098 95.9244 71.3851 95.6891 71.9734L94.2775 70.3507C94.2854 67.6103 94.3589 64.816 94.1093 62.0833C93.9533 60.3725 93.414 58.6751 93.3564 56.9624Z" fill="#FAC88A"/>
<path d="M83.0295 95.7305C85.404 95.5303 87.066 96.4321 88.9524 97.7399C86.6672 98.6283 84.2477 99.3961 81.8592 99.9449C81.7958 99.9531 81.7325 99.9623 81.6688 99.9693C79.4686 100.209 77.4918 99.2697 75.8252 97.9388C78.0482 96.4776 80.4135 96.0077 83.0295 95.7305Z" fill="#FADD97"/>
<path d="M56.6825 19.3784C58.1484 19.9533 59.4552 20.8713 60.4929 22.0555C62.2236 24.0006 63.6212 27.1796 63.4618 29.803C62.0258 29.7408 60.6371 28.9105 59.6444 27.9064C57.429 25.6656 56.6517 22.4347 56.6825 19.3784Z" fill="#FADD97"/>
<path d="M67.9244 49.1168C69.6109 49.0851 71.2016 49.267 72.8183 49.7654C75.0888 50.4656 78.59 52.2547 79.6521 54.5338C79.7929 54.8361 79.7545 54.9058 79.6521 55.2011L79.3347 55.2876C78.0915 55.0557 76.8341 54.8437 75.605 54.5469C72.8491 53.8815 70.7626 52.5561 68.7099 50.6189C68.2785 50.2118 67.7568 49.7859 67.4473 49.2764L67.9244 49.1168Z" fill="#FADD97"/>
<path d="M35.5142 61.153C35.5596 61.1487 35.6047 61.1435 35.6504 61.1402C38.4968 60.9467 41.0613 61.6384 43.2204 63.5417C41.0778 64.3041 39.0148 64.4317 36.7531 64.4464C33.9463 64.4512 31.3406 63.9561 28.7207 62.9765C30.9204 61.8367 33.0584 61.358 35.5142 61.153Z" fill="#FADD97"/>
<path d="M31.6514 49.3237C33.9789 50.073 36.4057 51.2844 38.0891 53.0976C39.3371 54.4419 40.7317 56.5147 40.6701 58.3976C40.4696 58.3583 40.5022 58.3714 40.3222 58.3129C35.6668 56.802 33.7571 53.4398 31.6514 49.3237Z" fill="#FAC88A"/>
<path d="M57.4219 61.7046C59.2451 63.211 61.0644 64.0425 62.3688 66.1351C63.6646 68.2142 63.9934 70.8309 63.4516 73.2032L63.1308 73.1819C58.9871 70.3787 59.6037 65.7222 57.4219 61.7046Z" fill="#FADD97"/>
<path d="M76.5252 88.5744C77.0572 88.4281 77.4097 88.3041 77.8439 87.9586C78.0078 87.5924 78.0983 87.4772 77.9566 87.0738C77.8006 86.629 77.2345 86.1028 76.9249 85.7524L76.9837 85.6308L77.1973 85.6025C77.5986 85.5464 78.4005 85.498 78.6278 85.0833C78.9669 84.4654 78.7668 82.9949 78.9246 82.2046C79.0239 83.335 79.076 84.4858 79.4288 85.5708L79.4209 85.5278C79.0257 86.302 78.5724 87.065 78.388 87.9202L78.498 88.1664C78.8749 88.1408 79.0708 88.0074 79.3237 87.7325C79.619 87.4114 79.767 86.9382 79.8993 86.5333C80.3929 87.2651 80.7564 88.0643 81.2046 88.823C82.0434 90.2432 83.3447 91.3214 84.5643 92.3991C83.7411 92.6916 82.4136 93.3491 81.5422 93.1154L81.4163 92.8165L81.5623 92.6407C81.6409 92.7017 81.7119 92.7739 81.7978 92.8236C81.9919 92.936 82.2292 92.9357 82.4398 92.8933C82.7055 92.84 82.7076 92.6861 82.8359 92.4677C82.8161 92.1709 82.7566 91.9924 82.5827 91.7556C81.2341 89.9208 78.3563 89.252 76.2363 88.9226L76.247 88.7864L76.5252 88.5744Z" fill="#FAC88A"/>
<path d="M71.6611 48.1176C72.212 48.1935 72.7711 48.2767 73.3284 48.2745C73.9734 48.2724 74.4536 48.1804 74.9125 47.7014C75.0666 47.3489 75.0608 47.1463 75.0136 46.7764C74.9743 46.4686 74.9457 46.2356 75.0002 45.9257L75.1532 45.8315C76.2086 47.1981 77.4919 48.3483 78.5916 49.6746C79.8258 51.1633 80.5291 52.8549 81.2789 54.6142L80.9742 55.3469C80.8871 54.7464 80.7539 54.1934 80.4648 53.6544C78.7829 50.5198 74.8189 49.152 71.6611 48.1176Z" fill="#FBAE6D"/>
<path d="M94.1299 89.6899C95.3541 90.211 96.561 91.1729 97.546 92.0507C98.0177 92.4708 98.8541 93.1396 98.8943 93.7974L98.5159 94.0366C97.6283 94.405 96.7237 94.7337 95.8246 95.0725C95.4193 93.1692 94.9471 91.4644 94.1299 89.6899Z" fill="#FAC88A"/>
<path d="M68.7876 40.6726C69.2343 40.7021 69.6021 40.8094 69.9914 40.5221C70.2093 40.3615 70.4101 39.9867 70.5914 39.7734C72.1358 41.4066 73.496 42.8115 74.2982 44.9604C72.6489 43.1579 71.0685 41.6427 68.6855 40.8776L68.7876 40.6726Z" fill="#FBAE6D"/>
<path d="M92.7482 62.7427C92.8177 62.9185 92.8086 62.8618 92.8311 63.0455C92.9365 63.9072 93.1614 68.4842 92.7845 68.9601L92.3418 68.5296L91.3418 67.1031C91.8784 65.6579 92.3655 64.239 92.7482 62.7427Z" fill="#FAC88A"/>
<path d="M85.2692 93.1074C85.6165 93.4362 86.1524 94.076 86.6406 94.08C86.8727 94.0818 87.1372 94.0081 87.3639 93.9578C87.7844 94.1717 87.9678 94.4316 88.2356 94.8021L88.1655 95.0541C87.1668 95.4892 85.6022 94.6238 84.5202 94.5093C83.8682 94.2567 83.2247 94.6047 82.5596 94.2217C83.4977 93.8972 84.3828 93.5553 85.2692 93.1074Z" fill="#FAC88A"/>
<path d="M64.8061 29.858L65.1242 29.0981C65.6992 31.0545 66.424 32.8598 67.3622 34.6714C66.2293 33.5325 65.1328 32.5289 63.7656 31.6803L63.9387 31.5304C64.4493 30.9856 64.6041 30.5682 64.8061 29.858Z" fill="#FBAE6D"/>
<path d="M86.4088 53.4312C86.2485 55.2288 86.1263 57.0115 86.1747 58.8186C85.6479 58.1517 85.1333 57.4643 84.5791 56.8202C85.2905 55.7727 85.8472 54.7505 86.0882 53.4872L86.4088 53.4312Z" fill="#FBAE6D"/>
<path d="M89.554 111.592C90.0653 112.017 90.4674 112.511 90.6892 113.148C90.9269 113.831 90.8967 114.292 90.5963 114.944C90.4985 114.932 90.3983 114.933 90.3032 114.907C89.9705 114.819 89.6518 114.5 89.49 114.208C89.0546 113.423 89.3556 112.403 89.554 111.592Z" fill="#FADD97"/>
<path d="M78.7765 45.1094L79.2201 45.2544C79.2372 46.5048 79.3926 47.7614 79.5069 49.0063C79.0087 48.3369 78.2793 47.7407 77.8838 47.0204C77.9551 46.411 78.5063 45.8464 78.7284 45.244C78.7448 45.1993 78.7604 45.1545 78.7765 45.1094Z" fill="#FAC88A"/>
<path d="M64.8616 72.1973C65.2656 72.9553 66.3902 74.9059 66.3214 75.7243C65.8899 75.3886 65.2336 74.9852 64.9058 74.5528C64.6413 74.2039 64.5761 73.9026 64.6535 73.4748C64.7309 73.0473 64.8052 72.6299 64.8616 72.1973Z" fill="#FAC88A"/>
<path d="M64.3038 38.8179C65.7587 39.3837 67.4464 39.8831 68.7879 40.6722L68.6858 40.8773C66.9747 40.1777 65.2618 39.4598 63.4629 39.0181L64.3038 38.8179Z" fill="#CE7A4C"/>
<path d="M79.0283 94.9883C80.2025 94.7202 81.3795 94.4645 82.5593 94.2217C83.2244 94.6047 83.8679 94.2567 84.5199 94.5093C82.6257 94.6863 80.8454 94.8996 78.9844 95.324L79.0283 94.9883Z" fill="#F5935A"/>
<path d="M86.0889 53.4872C86.3865 51.5582 86.1608 49.7289 86.2741 47.8057C86.8811 49.2697 86.658 51.8778 86.4094 53.4311L86.0889 53.4872Z" fill="#A3694E"/>
<path d="M34.1246 55.2905C35.0563 56.3749 35.9722 57.3219 37.1644 58.1217L36.8981 58.6067C35.7873 57.6659 34.8976 56.5562 33.9707 55.442L34.1246 55.2905Z" fill="#FBAE6D"/>
<path d="M72.8643 88.6736L76.5251 88.5742L76.2469 88.7863L76.2362 88.9225C75.1607 88.9459 74.0915 88.9779 73.0187 89.0596L73.1461 88.9338L72.8643 88.6736Z" fill="#CE7A4C"/>
<path d="M78.9256 44.1279C78.9088 42.748 78.7824 41.2712 78.964 39.9053C79.1569 41.1286 79.2544 42.2895 79.2507 43.5283L78.9256 44.1279Z" fill="#A3694E"/>
<path d="M64.2197 26.4269L64.5186 26.3169C64.7258 27.2395 64.9647 28.1666 65.124 29.0981L64.8059 29.858C64.7627 28.6547 64.5174 27.5883 64.2197 26.4269Z" fill="#A3694E"/>
<path d="M33.9706 55.4417C33.4989 54.9926 32.9584 54.41 32.7217 53.7994L32.8585 53.7275C33.4084 54.1444 33.7433 54.7251 34.1245 55.2903L33.9706 55.4417Z" fill="#2D1F1B"/>
<path d="M63.7654 31.6803C62.8678 31.3555 62.0092 30.8704 61.2441 30.3047C62.1896 30.5806 63.0622 31.0861 63.9385 31.5304L63.7654 31.6803Z" fill="#A3694E"/>
<path d="M94.1846 93.0488C94.2242 93.0945 94.2735 93.1332 94.3034 93.1859C94.6757 93.8474 94.6264 94.8334 94.5648 95.5552C94.1593 95.0653 94.2391 93.7307 94.1846 93.0488Z" fill="#A3694E"/>
<path d="M79.2508 43.5283L79.22 45.2544L78.7764 45.1093L78.9257 44.1279L79.2508 43.5283Z" fill="#FAC88A"/>
<path d="M209.997 179.018C211.934 179.323 214.018 180.443 215.806 181.241C222.778 184.353 229.53 187.991 236.337 191.447C244.488 195.585 252.738 199.575 260.763 203.961C264.955 206.251 269.072 208.723 273.171 211.175C275.593 212.624 278.56 214.055 280.581 216.018C281.247 216.665 281.53 217.418 281.725 218.315C282.119 220.135 281.943 222.151 281.948 224.008L281.974 231.838C287.821 234.812 296.249 239.222 300.153 244.444C302.681 247.826 303.223 251.943 302.581 256.055C302.032 259.569 299.989 262.282 297.163 264.343C292.915 267.441 287.785 269.535 283.035 271.713C278.57 273.759 274.199 275.875 269.526 277.421C258.659 281.015 246.59 280.693 235.405 278.933C232.134 278.415 228.781 277.652 225.638 276.605C220.374 274.852 215.335 272.034 210.366 269.582C203.707 266.308 197.028 263.075 190.329 259.884C180.066 254.969 169.718 250.191 159.513 245.161C155.807 243.334 150.782 241.17 147.361 239.021C145.457 237.825 143.78 235.581 142.802 233.586C141.075 230.065 141.114 226.77 142.386 223.117C144.635 216.662 150.493 213.787 156.262 211.022C156.743 208.927 157.339 206.916 158.373 205.02C160.099 201.857 162.751 199.023 165.689 196.952C172.702 192.01 181.411 189.211 189.39 186.218C196.177 183.673 203.04 181.066 209.997 179.018Z" fill="black"/>
<path d="M156.065 212.498C156.096 212.507 156.132 212.505 156.16 212.523C156.237 212.573 156.329 212.618 156.373 212.699C156.635 213.184 156.245 224.92 156.466 227.014C159.412 228.982 164.572 231.09 167.931 232.677C174.703 235.956 181.502 239.175 188.33 242.335L212.845 253.768C217.714 256.031 222.926 258.732 227.987 260.435C231.871 259.003 235.695 257.333 239.535 255.785L255.14 249.582C254.712 250.904 254.722 251.595 255.244 252.9C254.968 253.041 254.694 253.187 254.423 253.337C252.722 254.284 251.257 255.804 250.756 257.728C250.262 259.625 250.763 261.725 251.737 263.392C253.051 265.642 255.294 267.077 257.785 267.696C260.355 268.334 263.23 267.945 265.485 266.524C267.883 265.013 269.275 262.604 269.868 259.88C270.152 260.11 270.447 260.319 270.751 260.521C272.926 261.968 275.608 262.33 278.141 261.787C280.541 261.273 283.04 259.892 284.35 257.766C285.741 255.51 285.595 253.16 284.994 250.703C285.494 250.414 286.062 250.092 286.401 249.609C286.695 249.192 286.754 248.613 286.662 248.122C286.273 246.03 282.976 247.713 281.589 246.821C280.905 245.67 282.756 244.595 282.477 243.242C282.265 242.901 282.009 242.75 281.627 242.647C278.614 241.834 278.582 245.132 277.722 245.531C276.453 246.121 274.138 245.037 271.348 246.825C268.885 248.402 268.171 250.736 267.609 253.43C266.166 252.199 264.534 251.587 262.759 250.991C262.533 250.669 262.306 250.315 262.043 250.023C261.759 249.707 261.54 249.683 261.137 249.656C260.846 249.833 260.595 249.981 260.272 250.095C259.728 249.905 259.245 249.145 258.821 248.734C258.448 248.669 258.421 248.689 258.077 248.853C257.939 249.214 257.859 249.579 257.507 249.787C256.889 249.805 256.393 249.438 255.869 249.145L268.707 244.211C271.572 243.101 279.466 240.665 281.143 238.881C282.402 237.542 282.052 235.119 281.998 233.431C287.846 236.103 297.396 241.286 300.26 247.152C301.348 249.383 301.661 251.948 300.828 254.321C299.334 258.575 295.418 260.928 291.571 262.789C288.531 264.259 285.358 265.448 282.296 266.875C277.542 269.09 272.831 271.686 267.786 273.186C256.044 276.677 237.164 275.649 225.628 271.571C222.185 270.354 218.958 268.664 215.698 267.036C212.525 265.445 209.325 263.908 206.1 262.425C191.391 255.766 176.821 248.803 162.4 241.54L153.979 237.304C151.929 236.276 149.753 235.279 147.853 233.988C146.372 232.982 145.202 231.104 144.452 229.51C143.409 227.292 143.107 224.758 143.994 222.428C145.861 217.524 151.545 214.449 156.065 212.498Z" fill="#F9F3EA"/>
<path d="M181.915 190.42L182.053 190.449C183.317 191.635 189.349 194.149 191.338 195.097C188.828 195.183 186.212 195.678 183.845 196.515C178.096 198.547 173.543 202.927 170.978 208.429C170.339 209.799 168.626 214.104 169.263 215.519C169.365 215.747 169.495 215.735 169.709 215.821C170.596 215.035 170.804 212.419 171.201 211.228C172.211 208.236 173.838 205.488 175.976 203.163C180.674 198.1 186.804 196.534 193.499 196.296C198.92 199.08 204.231 201.926 209.337 205.261C206.845 205.493 204.477 205.933 202.133 206.836C195.612 209.348 190.761 215.119 188.016 221.413C187.73 222.07 187.264 223.073 187.538 223.769C187.643 223.797 187.745 223.868 187.852 223.852C188.384 223.772 190.648 218.997 191.119 218.244C194.06 213.55 197.682 210.037 202.881 208.018C205.676 206.981 208.587 206.842 211.507 206.443C214.419 208.219 217.421 209.846 220.403 211.501C223.353 213.139 226.285 214.819 229.35 216.234C224.807 217.008 220.071 217.827 216.178 220.452C211.107 223.873 208.75 229.13 207.617 234.959C200.403 231.154 193.007 227.802 185.633 224.325L157.846 211.024C157.99 209.675 158.333 208.354 158.865 207.106C162.797 197.697 173.192 193.99 181.915 190.42Z" fill="#8F5445"/>
<path d="M278.336 216.054C279.088 216.294 279.751 216.707 280.116 217.432C280.358 217.913 280.483 218.479 280.536 219.012C280.702 220.703 280.536 222.539 280.562 224.249C280.62 228.189 280.831 232.254 280.596 236.181C280.561 236.76 280.479 237.302 280.284 237.848C279.755 238.489 278.596 238.951 277.832 239.277C272.613 241.5 267.173 243.329 261.881 245.391L230.763 257.831L228.817 258.604C228.859 253.497 228.125 242.745 229.989 238.497C230.705 236.866 231.891 235.477 233.299 234.4C235.782 232.501 238.939 231.193 241.755 229.862C248.814 226.527 256.137 223.358 263.538 220.848C268.423 219.191 273.562 217.986 278.336 216.054Z" fill="#FBAE6D"/>
<path d="M240.304 234.901C240.443 234.907 240.497 234.905 240.647 234.935C241.131 235.034 241.656 235.285 241.895 235.744C242.098 236.134 242.044 236.569 241.899 236.963C241.499 238.052 240.756 238.566 239.748 239.041C239.501 239.036 239.262 239.033 239.021 238.976C238.607 238.878 238.212 238.69 238.023 238.284C237.874 237.962 237.905 237.597 238.011 237.268C238.379 236.128 239.279 235.421 240.304 234.901Z" fill="black"/>
<path d="M240.338 236.072C240.382 236.113 240.436 236.145 240.471 236.194C240.575 236.338 240.615 236.519 240.573 236.688C240.432 237.264 239.925 237.556 239.451 237.835C239.327 237.605 239.24 237.48 239.303 237.203C239.41 236.73 239.981 236.362 240.338 236.072Z" fill="#F5935A"/>
<path d="M234.287 247.859C234.62 247.831 234.968 247.799 235.301 247.828C235.861 247.877 236.473 248.221 236.797 248.679C237.054 249.04 237.104 249.394 237.014 249.826C236.877 250.489 236.305 250.825 235.782 251.162C235.422 251.2 235.038 251.237 234.677 251.217C234.158 251.188 233.595 250.888 233.302 250.46C233.103 250.171 233.029 249.833 233.078 249.488C233.185 248.722 233.704 248.298 234.287 247.859Z" fill="black"/>
<path d="M260.633 234.157C260.948 234.136 261.268 234.11 261.583 234.121C262.122 234.141 262.664 234.364 262.981 234.817C263.22 235.157 263.224 235.446 263.108 235.833C262.916 236.476 262.274 236.817 261.735 237.127C261.405 237.18 261.047 237.254 260.711 237.227C260.278 237.193 259.837 236.969 259.585 236.61C259.345 236.267 259.302 235.85 259.412 235.454C259.599 234.783 260.075 234.498 260.633 234.157Z" fill="black"/>
<path d="M270.883 230.036C270.968 230.035 271.053 230.032 271.139 230.034C271.799 230.042 272.473 230.364 272.919 230.85C273.219 231.177 273.406 231.61 273.316 232.061C273.19 232.69 272.661 232.964 272.154 233.257C271.792 233.295 271.403 233.343 271.044 233.272C270.584 233.181 270.084 232.924 269.843 232.505C269.626 232.128 269.562 231.766 269.678 231.345C269.861 230.681 270.322 230.377 270.883 230.036Z" fill="black"/>
<path d="M275.014 220.771C275.557 220.767 276.25 220.815 276.611 221.29C276.851 221.606 276.87 221.961 276.779 222.332C276.553 223.256 275.832 223.659 275.062 224.097C274.88 224.102 274.628 224.126 274.446 224.085C274.054 223.998 273.721 223.786 273.508 223.439C273.27 223.048 273.322 222.57 273.472 222.16C273.775 221.333 274.253 221.12 275.014 220.771Z" fill="black"/>
<path d="M262.726 225.112C263.439 224.71 264.342 224.955 264.755 225.662C265.167 226.369 264.936 227.276 264.235 227.699C263.773 227.978 263.196 227.987 262.725 227.721C262.255 227.455 261.964 226.957 261.964 226.416C261.964 225.876 262.255 225.378 262.726 225.112Z" fill="black"/>
<path d="M245.96 242.746C246.456 242.591 246.997 242.718 247.373 243.077C247.748 243.436 247.9 243.971 247.767 244.473C247.635 244.976 247.24 245.367 246.736 245.494C245.986 245.684 245.222 245.242 245.011 244.498C244.801 243.753 245.222 242.977 245.96 242.746Z" fill="black"/>
<path d="M249.235 237.042C249.895 236.844 250.594 237.206 250.814 237.859C251.034 238.513 250.697 239.223 250.051 239.466C249.614 239.63 249.121 239.542 248.767 239.237C248.413 238.932 248.253 238.458 248.35 238.001C248.448 237.544 248.787 237.177 249.235 237.042Z" fill="black"/>
<path d="M251.737 229.553C252.385 229.326 253.096 229.655 253.342 230.295C253.589 230.936 253.282 231.657 252.649 231.923C252.222 232.103 251.731 232.036 251.368 231.748C251.005 231.461 250.827 230.999 250.903 230.542C250.98 230.085 251.299 229.706 251.737 229.553Z" fill="black"/>
<path d="M258.284 204.617C259.77 204.381 274.712 213.633 276.912 215.122C272.624 216.461 268.317 217.671 264.066 219.138C256.404 221.782 236.639 229.522 231.374 234.205C228.269 236.966 227.572 240.592 227.346 244.568C221.674 242.307 216.144 239.281 210.741 236.445L209.115 235.635C209.461 232.051 210.63 228.58 212.742 225.641C217.125 219.544 224.516 218.408 231.419 217.236C236.242 220.097 241.226 222.698 246.067 225.536C243.774 223.312 240.478 221.616 237.775 219.917C234.526 217.873 231.248 215.55 227.754 213.946C237.913 210.781 247.994 207.346 258.284 204.617Z" fill="#8F5445"/>
<path d="M157.727 212.576C164.427 215.249 170.847 218.838 177.37 221.923C185.432 225.736 193.55 229.432 201.542 233.392C203.304 234.265 206.158 235.286 207.58 236.538C207.548 236.96 207.52 237.289 207.656 237.7C207.976 237.934 207.973 237.975 208.361 237.937C208.548 237.688 208.732 237.461 208.951 237.24C210.948 237.748 213.104 239.176 214.949 240.131C218.907 242.18 223.28 244.571 227.436 246.138C227.453 250.127 227.442 254.117 227.404 258.106C227.389 258.3 227.333 258.399 227.249 258.571C226.672 258.639 226.066 258.335 225.543 258.108C219.857 255.637 214.254 252.923 208.629 250.314C199.119 245.96 189.637 241.545 180.184 237.069C175.013 234.645 169.856 232.192 164.713 229.71C162.391 228.579 159.847 227.553 157.689 226.153C157.637 221.63 157.706 217.099 157.727 212.576Z" fill="#FBAE6D"/>
<path d="M216.09 245.802C217.027 245.659 217.908 246.289 218.075 247.223C218.243 248.156 217.637 249.053 216.708 249.246C216.085 249.375 215.441 249.156 215.026 248.674C214.611 248.191 214.49 247.521 214.712 246.924C214.933 246.327 215.461 245.898 216.09 245.802Z" fill="black"/>
<path d="M200.084 238.952C200.958 238.863 201.747 239.477 201.875 240.346C202.003 241.215 201.423 242.031 200.561 242.197C199.968 242.311 199.36 242.09 198.979 241.622C198.597 241.154 198.503 240.515 198.734 239.957C198.965 239.399 199.484 239.013 200.084 238.952Z" fill="black"/>
<path d="M190.042 232.095C190.822 231.77 191.717 232.132 192.053 232.907C192.389 233.681 192.04 234.582 191.27 234.929C190.762 235.158 190.171 235.095 189.722 234.766C189.273 234.436 189.036 233.89 189.103 233.337C189.169 232.784 189.528 232.31 190.042 232.095Z" fill="black"/>
<path d="M174.957 225.296C175.689 224.896 176.607 225.163 177.009 225.894C177.412 226.624 177.148 227.543 176.419 227.948C175.687 228.355 174.763 228.089 174.358 227.355C173.954 226.621 174.222 225.699 174.957 225.296Z" fill="black"/>
<path d="M162.413 219.799C163.149 219.43 164.044 219.73 164.409 220.468C164.774 221.206 164.469 222.1 163.729 222.461C162.995 222.819 162.109 222.517 161.747 221.785C161.385 221.052 161.682 220.165 162.413 219.799Z" fill="black"/>
<path d="M142.768 229.096C142.952 229.274 142.908 229.2 143.012 229.404C143.991 231.321 145.04 233.537 146.806 234.854C149.657 236.98 156.219 239.825 159.624 241.555C175.309 249.536 191.171 257.165 207.199 264.435C214.641 267.884 221.907 272.167 229.886 274.229C239.809 276.794 252.661 277.348 262.768 275.681C265.39 275.257 267.967 274.591 270.466 273.692C274.65 272.177 278.533 270.001 282.573 268.163C287.215 266.051 292.434 264.351 296.647 261.445C298.447 260.204 299.752 258.7 301.019 256.934L300.319 258.798C300.013 259.399 299.637 260.002 299.217 260.532C298.134 261.901 296.76 262.977 295.309 263.931C291.838 266.214 287.976 267.914 284.23 269.687C278.983 272.171 273.71 274.726 268.152 276.443C264.842 277.466 261.409 278.081 257.969 278.465C247.784 279.602 236.651 278.463 226.835 275.557C221.242 273.901 215.879 270.774 210.641 268.215L187.504 257.05L158.559 243.229C155.515 241.75 149.423 239.208 147.102 237.274C144.804 235.359 143.09 232.06 142.768 229.096Z" fill="#F9F3EA"/>
<path d="M238.506 194.439C238.828 194.364 239.058 194.366 239.38 194.465C241.144 195.004 243 196.239 244.649 197.108L256.7 203.495C254.887 204.2 252.939 204.655 251.07 205.205L242.613 207.767C238.93 203.409 233.487 199.845 227.958 198.383C227.388 198.285 226.814 198.183 226.233 198.191C222.217 198.248 215.961 203.029 213.291 205.828C211.516 204.613 209.566 203.624 207.682 202.588C211.782 200.993 215.994 199.347 220.23 198.157C222.557 197.504 224.996 197.119 227.366 196.638C231.069 195.855 234.783 195.122 238.506 194.439Z" fill="#8F5445"/>
<path d="M225.121 199.743C225.588 199.688 226.059 199.666 226.53 199.678C231.761 199.799 237.783 204.606 241.267 208.155C237.294 209.308 233.359 210.587 229.469 211.992L226.234 213.19C222.395 210.914 218.433 208.809 214.537 206.63C217.305 203.663 221.294 201.08 225.121 199.743Z" fill="#FAC88A"/>
<path d="M224.972 200.598C225.006 200.628 225.042 200.656 225.073 200.689C226.647 202.423 221.591 204.746 221.687 206.729C221.702 207.044 221.936 207.383 222.202 207.546C223.163 208.132 224.954 207.843 226.027 207.635C227.378 207.373 230.875 206.516 231.502 205.174C231.61 204.943 231.628 204.718 231.531 204.487C231.329 204.007 231.002 203.831 230.55 203.637C230.251 203.509 230.045 203.404 229.798 203.18C229.836 202.807 229.851 202.879 230.112 202.653C230.94 202.539 231.713 202.969 232.377 203.422C232.61 203.731 232.856 204.076 232.959 204.455C233.089 204.935 232.993 205.38 232.743 205.797C231.715 207.512 228.557 208.438 226.703 208.853C225.049 209.223 222.732 209.507 221.265 208.488C220.796 208.161 220.484 207.7 220.426 207.125C220.188 204.742 223.501 202.44 224.863 200.737C224.9 200.691 224.936 200.644 224.972 200.598Z" fill="black"/>
<path d="M226.135 202.98C227.107 202.905 227.96 203.625 228.049 204.596C228.138 205.567 227.431 206.43 226.461 206.534C225.821 206.602 225.193 206.32 224.819 205.796C224.445 205.272 224.383 204.587 224.655 204.004C224.928 203.421 225.493 203.029 226.135 202.98Z" fill="black"/>
<path d="M226.13 204.064C226.447 203.99 226.767 204.18 226.855 204.494C226.942 204.808 226.768 205.136 226.459 205.239C226.245 205.31 226.009 205.257 225.846 205.102C225.683 204.947 225.618 204.715 225.677 204.498C225.736 204.281 225.91 204.114 226.13 204.064Z" fill="#D3BD9E"/>
<path d="M209.608 180.553C211.27 180.185 217.079 183.317 218.762 184.212C217.1 184.917 215.275 185.307 213.539 185.793C205.424 188.063 201.235 189.011 195.49 195.74L193.713 194.869C190.269 193.146 186.823 191.463 183.282 189.945C187.059 188.247 191.081 186.995 194.976 185.589C199.812 183.844 204.651 181.924 209.608 180.553Z" fill="#8F5445"/>
<path d="M208.154 188.771C208.493 188.746 208.832 188.735 209.173 188.757C214.203 189.07 219.303 192.419 222.583 196.08C218.19 197.171 213.94 198.662 209.738 200.334L206.224 201.75C203.102 199.856 199.892 198.102 196.703 196.324C199.972 192.278 203.237 190.227 208.154 188.771Z" fill="#FAC88A"/>
<path d="M208.961 190.629C209.687 190.591 210.203 190.529 210.781 191.047C212.037 192.175 213.527 191.433 215.019 192.233C215.575 192.531 216.369 193.011 216.496 193.691C216.556 194.013 216.441 194.321 216.266 194.586C215.104 196.34 212.036 196.835 210.113 197.287C208.437 197.781 205.919 198.456 204.311 197.533C203.814 197.248 203.424 196.772 203.314 196.202C203.152 195.366 203.482 194.517 203.943 193.832C205.056 192.178 207.035 191.008 208.961 190.629Z" fill="black"/>
<path d="M208.888 191.542C209.422 191.597 209.932 191.661 210.371 191.992C210.412 192.913 208.176 193.458 207.628 194.192C207.451 194.429 207.507 194.324 207.545 194.672L207.848 194.814C209.387 194.573 210.159 193.93 211.253 192.874C211.749 192.815 212.252 192.75 212.751 192.746C213.427 192.741 214.566 192.961 215.039 193.49C215.214 193.685 215.152 193.795 215.146 194.038C214.842 194.508 214.472 194.659 213.979 194.9C212.344 195.496 206.588 197.248 205.114 196.486C204.808 196.328 204.586 196.091 204.524 195.745C204.399 195.053 204.942 194.215 205.308 193.682C206.184 192.409 207.406 191.829 208.888 191.542Z" fill="#FAC88A"/>
<path d="M260.691 251.772C262.655 252.039 264.969 252.807 266.495 254.103C267.766 255.184 268.536 256.599 268.612 258.276C268.725 260.405 267.955 262.486 266.484 264.029C264.626 265.996 262.392 266.747 259.734 266.817C259.197 266.768 258.66 266.72 258.136 266.59C256.011 266.066 253.933 264.761 252.842 262.825C252.028 261.38 251.659 259.453 252.149 257.841C252.698 256.035 254.133 255.084 255.68 254.203C256.117 254.403 256.57 254.567 257.058 254.558C258.701 254.528 259.648 252.831 260.691 251.772Z" fill="#F76246"/>
<path d="M265.281 261.044C265.446 261.179 265.566 261.34 265.701 261.503C265.731 261.792 265.774 261.898 265.661 262.178C265.229 263.236 263.683 263.779 262.703 264.183L262.557 264.164L262.467 264.017C263.387 262.984 264.422 262.154 265.281 261.044Z" fill="black"/>
<path d="M266.162 255.865C266.511 256.165 266.69 256.804 266.727 257.26C266.799 258.145 266.399 258.718 265.833 259.341L265.575 259.294L265.43 259.061C265.462 257.99 265.65 256.816 266.162 255.865Z" fill="black"/>
<path d="M274.984 246.678C276.661 246.572 278.383 246.811 279.927 247.498C281.739 248.304 283.159 249.694 283.833 251.581C284.414 253.221 284.286 255.029 283.479 256.572C282.355 258.75 280.323 259.926 278.064 260.611C276.66 261.005 275.179 261.024 273.766 260.669C272.218 260.291 270.406 259.34 269.905 257.699C269.594 256.68 269.551 255.845 268.99 254.898C268.957 254.844 268.924 254.789 268.891 254.735C269.064 253.098 269.205 251.523 270.066 250.069C271.191 248.165 272.905 247.212 274.984 246.678Z" fill="#F76246"/>
<path d="M281.538 252.239C281.624 252.295 281.718 252.339 281.796 252.406C282.308 252.85 282.571 253.624 282.523 254.286C282.421 255.679 281.408 256.733 280.408 257.588C280.12 257.557 280.094 257.617 279.896 257.383C280.189 256.802 280.6 256.4 281.003 255.901C281.855 254.847 281.658 253.489 281.538 252.239Z" fill="black"/>
<path d="M275.781 248.205C275.919 248.196 276.057 248.185 276.196 248.184C276.622 248.182 276.838 248.306 277.137 248.595C276.854 249.186 274.859 249.215 274.183 249.484C274.137 249.502 274.092 249.522 274.046 249.541C273.693 249.721 273.432 249.828 273.035 249.898L272.864 249.727C272.917 249.589 272.927 249.536 273.036 249.41C273.747 248.589 274.766 248.358 275.781 248.205Z" fill="black"/>
<path d="M220.747 185.136C226.135 187.699 231.525 190.391 236.72 193.327C233.648 193.887 230.587 194.504 227.538 195.176L224.347 195.917C221.136 191.823 216.394 189.328 211.556 187.71C214.595 186.764 217.672 185.957 220.747 185.136Z" fill="#8F5445"/>
<path d="M256.042 250.831C256.746 250.996 258.15 251.475 258.692 251.91L258.441 252.28C258.157 252.506 257.848 252.789 257.478 252.846C257.142 252.897 256.791 252.771 256.561 252.525C256.118 252.053 256.073 251.441 256.042 250.831Z" fill="#F76246"/>
<path d="M280.786 243.896L280.908 244.036C280.749 244.609 280.556 245.191 280.288 245.724C280.076 246.146 279.976 246.177 279.525 246.304C279.175 245.903 279.132 245.876 279.083 245.351C279.38 244.541 280.073 244.269 280.786 243.896Z" fill="#FAC88A"/>
<path d="M283.835 248.111C283.984 248.107 284.203 248.097 284.346 248.116C284.747 248.171 284.85 248.241 285.103 248.524C285.062 249.036 284.881 249.194 284.586 249.605C284.496 249.6 284.513 249.606 284.389 249.543C283.95 249.319 283.705 248.967 283.581 248.498L283.835 248.111Z" fill="#F5935A"/>
<path d="M26.7392 223.702C30.0664 223.465 33.3137 223.658 36.6013 224.191C37.9297 224.407 39.2871 224.772 40.6219 224.898C41.5719 224.988 42.6859 224.554 43.6469 224.448C44.5625 224.348 45.5368 224.492 46.4433 224.624C49.7394 225.107 55.7993 227.111 57.8173 229.834C59.4108 230.24 61.2011 230.586 62.6536 231.355C63.6853 231.232 64.6883 231.098 65.7306 231.118C69.9048 231.195 74.1632 232.834 77.7761 234.852C78.6472 235.339 79.4888 236.284 80.3891 236.608C81.4348 236.985 82.6612 237.153 83.7498 237.393C89.9097 238.749 92.9544 238.408 98.6859 241.975C99.9053 242.733 101.332 243.545 102.333 244.576C104.404 244.725 106.16 245.37 108.16 245.784C109.256 246.011 110.394 246.051 111.502 246.214C114.108 246.599 116.817 247.465 119.061 248.865C120.53 249.781 121.514 251.358 122.972 252.218C124.664 253.217 126.545 253.765 128.262 254.814C129.866 254.617 131.47 254.477 133.083 254.657C136.845 255.077 139.428 256.733 142.225 259.173C143.097 259.934 144.03 260.691 144.753 261.597C147.043 262.306 149.054 263.456 151.263 264.329C153.053 265.037 155.003 265.172 156.789 265.962C159.894 267.335 162.535 269.891 165.2 271.955C166.781 273.179 168.432 274.298 170.03 275.496C173.978 278.453 179.473 282.851 180.123 288.089C180.351 289.925 179.831 291.91 178.648 293.347C175.938 296.64 170.788 297.577 166.798 297.989C166.669 298.007 166.539 298.028 166.409 298.042C160.208 298.715 153.636 297.992 147.494 297.131C121.066 293.425 94.3539 283.726 69.8427 273.363C53.8472 266.6 34.2147 257.934 20.8472 247.002C17.1372 243.967 12.3081 239.603 11.8877 234.522C11.7279 232.451 12.3891 230.399 13.7285 228.812C16.8187 225.099 22.2039 224.137 26.7392 223.702Z" fill="black"/>
<path d="M27.0297 224.92C30.7196 224.558 34.8914 224.924 38.4526 225.864C34.6793 227.938 32.2461 230.99 30.8003 235.041C30.1044 236.991 27.9846 243.828 28.7935 245.519L29.0923 245.616C30.3989 244.932 31.6029 242.102 32.6562 240.843C34.7661 238.322 37.2646 235.989 40.1353 234.36C46.4896 230.753 54.0425 230.13 61.0067 232.04C60.6823 232.205 60.3608 232.376 60.043 232.552C54.4764 235.668 51.8448 241.186 50.2086 247.125C49.8174 248.546 48.1224 254.348 48.7486 255.45C49.6858 255.478 50.4895 253.568 50.878 252.852C53.6135 247.7 57.7981 243.463 62.915 240.663C69.4758 237.077 76.9721 236.652 84.1118 238.712C82.5125 239.306 81.0351 239.954 79.6341 240.939C73.7902 245.048 71.1812 252.363 69.5039 259.027C69.1739 260.339 68.7461 261.701 68.5511 263.038C68.4621 263.646 68.3601 264.346 68.7403 264.858C69.6879 264.756 70.4192 262.979 70.8253 262.237C73.3116 257.695 76.6567 253.66 80.8617 250.591C88.9798 244.664 96.5424 244.811 106.041 246.331C104.525 246.946 103.064 247.518 101.669 248.392C94.4806 252.898 91.7601 262.075 90.0203 269.914C89.8616 270.628 89.7138 271.405 90.1254 272.053C90.2436 272.091 90.3655 272.213 90.4795 272.165C90.5712 272.127 90.9408 271.349 91.0322 271.187C92.1071 269.288 93.1327 267.397 94.4099 265.621C98.0872 260.507 103.194 256.178 109.223 254.163C115.075 252.206 121.15 252.571 126.656 255.331C126.185 255.524 125.716 255.722 125.249 255.925C119.778 258.322 116.173 263.09 114.062 268.555C113.382 270.316 110.518 278.614 111.217 279.902C111.338 280.125 111.46 280.098 111.683 280.163C112.759 279.774 113.557 277.667 114.073 276.697C117.796 270.419 123.636 265.676 130.544 263.319C136.885 261.216 143.577 261.904 149.531 264.863C146.911 265.576 144.594 266.58 142.452 268.277C137.7 272.044 135.881 277.181 134.126 282.761C133.68 284.179 132.98 285.824 132.866 287.301C132.837 287.676 132.821 287.841 133.081 288.133C134.235 288.124 137.452 283.715 138.414 282.761C139.55 281.646 140.755 280.603 142.023 279.64C145.821 276.743 150.414 274.422 155.163 273.66C159.842 272.909 164.741 273.12 168.669 275.98C172.45 278.734 178.024 283.164 178.711 288.082C178.937 289.701 178.596 291.277 177.55 292.553C175.193 295.428 170.682 296.256 167.211 296.662C156.999 297.856 145.036 295.711 135.053 293.529C111.77 288.438 89.5755 280.459 67.7013 271.072C53.1385 264.823 34.8566 256.557 22.5286 246.79C18.8481 243.874 13.6884 239.469 13.2059 234.468C13.0289 232.632 13.5648 230.907 14.7644 229.507C17.6121 226.183 22.9072 225.225 27.0297 224.92Z" fill="#FBAE6D"/>
<path d="M150.616 265.877C150.787 265.862 150.953 265.849 151.124 265.846C154.433 265.779 157.883 267.327 160.266 269.589C158.278 268.948 156.36 268.53 154.259 268.575C148.52 268.699 143.769 271.866 139.957 275.896C138.095 278.111 136.678 280.477 135.324 283.022C136.182 279.593 137.446 275.989 139.471 273.075C142.201 269.145 145.931 266.739 150.616 265.877Z" fill="#FAC88A"/>
<path d="M130.534 255.692C133.225 255.502 135.91 256.14 138.228 257.521C135.725 257.229 133.401 257.24 130.948 257.877C123.951 259.692 119.506 264.622 115.953 270.64C114.953 272.372 113.967 274.114 112.997 275.863C114.265 270.851 115.95 265.791 119.321 261.776C122.204 258.341 126.035 256.068 130.534 255.692Z" fill="#FAC88A"/>
<path d="M86.0085 239.363C88.2613 239.156 90.2445 239.673 92.3984 240.258C91.175 240.509 89.9429 240.761 88.7452 241.117C81.2995 243.325 76.5177 248.75 72.9133 255.376C72.0455 256.951 71.2738 258.58 70.417 260.163C71.4648 255.644 72.8463 250.839 75.4498 246.948C78.0302 243.092 81.4028 240.292 86.0085 239.363Z" fill="#FAC88A"/>
<path d="M153.509 269.854C156.888 269.286 160.317 270.829 163.243 272.303C155.302 271.54 149.437 273.154 142.746 277.473C140.729 278.971 138.807 280.506 136.993 282.247C137.749 280.949 138.629 279.672 139.541 278.478C143.173 273.723 147.502 270.655 153.509 269.854Z" fill="#EB7F50"/>
<path d="M108.081 247.152C109.899 246.946 111.84 247.405 113.586 247.873C112.544 248.059 111.49 248.234 110.463 248.489C102.869 250.373 98.1859 256.331 94.3334 262.722C93.5175 263.965 92.7881 265.294 92.0215 266.569C93.346 261.979 94.8264 257.344 97.7231 253.467C100.253 250.08 103.877 247.741 108.081 247.152Z" fill="#FAC88A"/>
<path d="M64.2322 232.372C66.1527 232.13 68.0515 232.521 69.9156 232.936C69.1593 233.081 68.4153 233.284 67.6767 233.501C59.5309 235.892 56.4831 239.945 52.5965 247.109C51.8894 248.509 51.184 249.904 50.4092 251.269C51.3366 246.624 52.7568 241.657 55.6266 237.824C57.8128 234.904 60.5854 232.9 64.2322 232.372Z" fill="#FAC88A"/>
<path d="M92.659 241.514C95.4923 241.214 97.5209 242.705 99.7948 244.146C99.7019 244.135 99.609 244.123 99.5157 244.113C92.0423 243.332 84.9587 245.682 79.133 250.326C77.5773 251.54 76.1572 252.959 74.7422 254.33C75.2955 253.426 75.889 252.547 76.5213 251.696C80.584 246.199 85.8188 242.547 92.659 241.514Z" fill="#CE7A4C"/>
<path d="M114.205 248.984C114.577 248.946 114.953 248.908 115.327 248.897C117.219 248.84 119.51 250.807 120.819 252.033C113.294 251.003 107.113 252.785 100.94 257.142C99.5094 258.216 98.2495 259.493 96.9805 260.748C97.5088 259.88 98.1224 259.046 98.7355 258.234C102.76 252.908 107.578 249.908 114.205 248.984Z" fill="#CE7A4C"/>
<path d="M120.122 266.597C123.393 262.46 128.066 259.291 133.385 258.635C137.218 258.162 139.945 259.265 143.062 261.374C141.092 261.065 139.132 260.766 137.131 260.786C131.942 260.838 126.484 263.017 122.33 266.055C121.635 266.563 120.965 267.11 120.296 267.651C120.383 267.284 120.23 266.946 120.122 266.597Z" fill="#EB7F50"/>
<path d="M42.9061 225.824C44.9974 225.449 47.3731 226.028 49.3737 226.59C48.2738 226.641 47.1863 226.702 46.1026 226.907C39.9722 228.064 36.2873 231.841 32.9126 236.798C31.92 238.243 31.1165 239.841 30.3232 241.402C31.0571 237.814 32.0232 233.713 34.2624 230.743C36.4906 227.788 39.2946 226.354 42.9061 225.824Z" fill="#FAC88A"/>
<path d="M70.3269 234.194C73.2616 233.925 75.0185 234.942 77.4953 236.281C70.2852 236 65.025 237.451 59.0781 241.604C57.6233 242.712 56.2384 243.91 54.9316 245.19C55.3817 244.409 55.8335 243.625 56.3497 242.884C59.7478 238.009 64.5195 235.229 70.3269 234.194Z" fill="#CE7A4C"/>
<path d="M47.87 227.808C50.9318 227.435 53.2675 228.479 55.9643 229.722C49.9083 229.411 43.9371 230.447 38.7248 233.677C36.9095 234.917 35.2992 236.307 33.7002 237.806C34.2925 236.787 34.9372 235.775 35.6578 234.842C38.6093 230.942 43.0151 228.404 47.87 227.808Z" fill="#CE7A4C"/>
<path d="M117.585 270.106C118.373 268.916 119.165 267.658 120.122 266.597C120.23 266.946 120.383 267.284 120.296 267.651C119.378 268.453 118.486 269.287 117.585 270.106Z" fill="#CE7A4C"/>
<path d="M219.184 120.759L219.432 120.852C219.689 121.108 219.828 121.302 219.886 121.67C220.198 123.653 219.112 125.981 217.978 127.558C220.477 127.52 222.867 127.735 225.229 128.602C228.051 129.637 231.315 131.946 232.622 134.732C233.91 134.765 235.19 134.826 236.467 135.013C241.459 135.744 244.355 137.482 247.339 141.484C249.436 139.565 251.089 137.668 253.672 136.349C260.42 132.9 267.746 132.136 274.997 134.553C280.325 136.329 285.296 140.043 287.828 145.14C289.602 148.713 289.803 153.073 288.516 156.838C286.984 161.321 283.586 164.529 279.38 166.567C272.366 169.967 263.903 169.692 256.659 167.209C252.554 165.756 249.479 163.506 246.563 160.324C245.844 161.558 245.028 162.733 244.121 163.838C239.501 169.416 232.71 173.249 225.446 173.893C221.283 174.262 216.475 173.094 213.236 170.368C209.545 167.262 208.315 162.696 207.923 158.083C203.594 155.613 199.29 152.856 197.285 148.068C195.975 144.954 195.948 141.448 197.209 138.313C198.946 134.095 202.581 131.351 206.68 129.634C204.839 128.706 203.238 127.399 202.297 125.518C202.071 125.065 202.046 124.784 202.204 124.31C202.555 124.048 202.708 123.928 203.159 123.974C203.924 124.054 204.768 124.386 205.507 124.612C208.056 125.393 210.352 126.109 212.178 128.166C213.306 124.479 216.152 122.82 219.184 120.759Z" fill="black"/>
<path d="M264.538 134.426C270.769 134.092 277.68 136.038 282.393 140.226C285.422 142.917 287.878 146.775 288.09 150.907C288.239 153.808 287.124 156.298 285.193 158.417C281.283 162.708 274.834 164.818 269.169 165.025C260.707 165.335 254.16 162.885 248.026 157.148C250.464 151.227 250.684 148.64 248.396 142.647C250.766 138.846 255.474 136.283 259.738 135.26C262.54 137.591 264.295 140.367 266.128 143.466C263.068 141.973 259.405 141.245 256.022 141.087C254.833 141.031 251.885 140.861 250.982 141.687L251.059 141.91C251.992 142.614 254.818 142.081 256.023 142.131C259.388 142.27 262.601 143.153 265.656 144.532C263.652 145.051 261.656 145.593 259.705 146.289C257.566 147.053 251.234 149.574 250.21 151.731L250.317 151.955C250.534 152.012 250.751 152.078 250.977 152.017C251.801 151.796 254.548 149.799 255.538 149.242C258.949 147.482 262.557 146.495 266.284 145.69C264.154 149.325 261.839 152.883 260.269 156.815C260.065 157.328 259.84 157.874 260.073 158.412C260.418 158.572 260.468 158.551 260.849 158.489C261.381 157.912 262.193 155.157 262.676 154.184C264.028 151.462 265.752 148.884 267.328 146.288C268.858 148.537 270.253 151.926 270.784 154.597C271.059 155.978 271.16 157.386 271.513 158.752C271.746 159 271.718 159.051 272.073 159.107L272.274 158.815C272.889 155.003 270.23 149.184 268.569 145.757C272.092 146.817 276.108 148.608 278.826 151.148C279.948 152.195 280.855 153.483 281.975 154.519C282.281 154.802 282.405 154.852 282.818 154.832L282.985 154.591C282.965 154.446 282.964 154.377 282.894 154.23C282.529 153.463 281.846 152.666 281.291 152.026C278.081 148.318 273.788 146.542 269.356 144.76C273.205 144.115 276.664 143.914 280.524 144.686C281.817 144.945 284.699 146.408 285.424 146.461C285.556 146.471 285.673 146.369 285.798 146.324L285.92 146.033C285.768 145.736 285.61 145.555 285.344 145.36C281.172 142.291 273.668 142.833 268.876 143.669C269.545 142.559 270.323 141.519 271.199 140.564C271.755 139.951 273.829 138.192 274.1 137.618C274.143 137.526 274.129 137.417 274.143 137.317L273.9 137.107C273.705 137.085 273.686 137.071 273.466 137.116C271.805 137.456 268.547 142.051 267.476 143.541C265.537 140.348 264.015 137.192 260.88 134.962C262.104 134.7 263.289 134.518 264.538 134.426Z" fill="#F9F3EA"/>
<path d="M236.18 136.359C236.693 136.323 237.262 136.452 237.769 136.545C240.459 137.039 243.421 138.345 244.976 140.682C246.966 143.673 246.79 147.416 246.073 150.787C244.656 157.454 240.255 162.866 234.578 166.501C230.302 169.238 222.816 172.483 217.63 171.236C215.065 170.62 213.007 168.823 211.636 166.622C209.041 162.451 208.835 158.181 209.9 153.524C213.333 152 216.524 150.818 220.262 150.259C219.495 150.93 218.754 151.641 218.035 152.364C216.308 154.099 210.467 160.543 210.472 162.907L210.658 163.077C211.507 162.819 214.339 158.179 215.161 157.171C216.706 155.277 218.42 153.547 220.123 151.797C219.645 153.516 219.217 155.249 218.84 156.993C218.375 158.985 217.612 163.173 218.272 165.114C218.399 165.488 218.538 165.686 218.886 165.857C219.543 165.32 219.301 163.679 219.296 162.883C219.269 158.695 220.381 154.66 221.781 150.738C223.75 153.904 225.327 157.246 227.697 160.156C228.276 160.867 229.629 162.705 230.533 162.747C230.82 162.76 230.804 162.705 231.002 162.537C231.053 161.633 228.892 159.912 228.264 159.17C226.143 156.664 224.607 153.415 223.045 150.535C227.088 150.911 231.136 151.205 235.085 152.213C236.267 152.515 238.953 153.897 240.056 153.392L240.033 153.087C237.383 150.558 226.927 149.706 223.095 149.408C226.776 146.074 232.35 144.346 237.203 143.64C238.19 143.497 240.153 143.555 240.958 143.012L240.941 142.74C240.771 142.596 240.74 142.558 240.523 142.442C238.787 141.522 231.041 143.979 228.867 144.679C230.317 142.943 235.656 137.792 236.18 136.359Z" fill="#F9F3EA"/>
<path d="M217.552 129.089C218.878 128.981 220.203 128.92 221.529 129.071C225.695 129.546 228.586 131.556 231.127 134.777C227.731 135.163 224.55 136.069 221.558 137.741C215.338 141.218 210.348 146.744 208.364 153.665C208.174 154.669 208.049 155.693 207.896 156.703C206.872 156.136 205.875 155.522 204.908 154.862C201.512 152.532 198.431 149.29 197.696 145.097C197.176 142.04 197.898 138.903 199.702 136.381C204.115 130.146 210.754 130.227 217.552 129.089Z" fill="#F76246"/>
<path d="M231.98 136.107C233.233 135.952 234.566 136.064 235.822 136.14C232.701 138.044 230.164 141.956 227.545 144.55C226.083 145.998 224.362 147.096 222.664 148.242C223.03 146.402 223.566 144.596 224.41 142.915C224.916 141.906 227.643 137.814 227.697 137.457L227.277 136.973C223.929 140.08 222.602 144.135 221.536 148.428C220.137 146.358 218.86 144.434 218.198 141.993C218.274 141.9 218.352 141.807 218.432 141.717C221.637 138.123 227.346 136.438 231.98 136.107Z" fill="#F9F3EA"/>
<path d="M247.687 144.355C248.474 145.441 248.741 147.262 248.801 148.578C249.05 154.017 245.788 160.203 242.196 164.115C237.472 169.324 230.861 172.427 223.836 172.732C223.428 172.733 223.095 172.72 222.694 172.628C223.426 172.136 225.584 171.924 226.595 171.607C231.988 169.913 236.775 167.087 240.686 162.988C245.997 157.424 247.859 151.973 247.687 144.355Z" fill="#FAC88A"/>
<path d="M247.561 158.485C248.529 159.041 250.097 160.724 251.208 161.512C255.518 164.567 261.194 166.022 266.419 166.224C274.019 166.517 280.379 164.444 285.985 159.243C285.687 159.729 285.339 160.19 285.009 160.656C283.334 162.598 281.346 164.109 279.056 165.265C272.476 168.586 264.503 168.503 257.616 166.216C254.207 165.085 251.563 163.445 248.955 161.001C248.444 160.522 247.708 159.955 247.427 159.308C247.297 159.01 247.46 158.781 247.561 158.485Z" fill="#FAC88A"/>
<path d="M217.229 142.438C217.255 142.467 217.292 142.49 217.307 142.526C217.543 143.087 217.669 143.706 217.922 144.278C218.687 146.014 219.68 147.655 220.638 149.289C218.046 149.285 215.662 150.069 213.244 150.925L210.418 152.106C212.076 148.057 214.005 145.376 217.229 142.438Z" fill="#F9F3EA"/>
<path d="M218.291 122.959C218.424 123.124 218.39 123.036 218.397 123.29C218.437 124.766 217.16 126.517 216.197 127.572C215.459 127.825 214.685 127.977 213.926 128.154L213.736 127.987C213.731 127.782 213.721 127.759 213.768 127.532C214.112 125.865 216.936 123.861 218.291 122.959Z" fill="#FADD97"/>
<path d="M203.945 125.597C205.419 125.987 206.96 126.322 208.388 126.854C209.361 127.217 210.338 127.66 210.78 128.647C209.953 128.779 209.021 128.78 208.199 128.629C206.256 128.272 205.021 127.166 203.945 125.597Z" fill="#FAC88A"/>
</svg>
