<svg width="24" height="25" viewBox="0 0 24 25" fill="none" xmlns="http://www.w3.org/2000/svg">
<g clip-path="url(#clip0_3408_630)">
<path d="M17.0725 0.666992H13.0278V17.0148C13.0278 18.9627 11.4722 20.5627 9.53626 20.5627C7.60034 20.5627 6.04469 18.9627 6.04469 17.0148C6.04469 15.1018 7.56577 13.5365 9.43257 13.467V9.36266C5.31872 9.43219 2 12.8061 2 17.0148C2 21.2583 5.38786 24.667 9.57085 24.667C13.7538 24.667 17.1416 21.2235 17.1416 17.0148V8.63219C18.6627 9.74526 20.5295 10.4061 22.5 10.4409V6.33656C19.4579 6.23221 17.0725 3.72786 17.0725 0.666992Z" fill="white"/>
</g>
<defs>
<clipPath id="clip0_3408_630">
<rect width="24" height="24" fill="white" transform="translate(0 0.666992)"/>
</clipPath>
</defs>
</svg>
