<svg width="24" height="25" viewBox="0 0 24 25" fill="none" xmlns="http://www.w3.org/2000/svg">
<path fill-rule="evenodd" clip-rule="evenodd" d="M12 2.66699C10.0222 2.66699 8.08879 3.25348 6.4443 4.3523C4.79981 5.45111 3.51809 7.0129 2.76121 8.84016C2.00433 10.6674 1.8063 12.6781 2.19215 14.6179C2.578 16.5577 3.53041 18.3395 4.92894 19.7381C6.32746 21.1366 8.10929 22.089 10.0491 22.4748C11.9889 22.8607 13.9996 22.6627 15.8268 21.9058C17.6541 21.1489 19.2159 19.8672 20.3147 18.2227C21.4135 16.5782 22 14.6448 22 12.667C22 11.3538 21.7413 10.0534 21.2388 8.84016C20.7363 7.6269 19.9997 6.52451 19.0711 5.59592C18.1425 4.66734 17.0401 3.93074 15.8268 3.4282C14.6136 2.92565 13.3132 2.66699 12 2.66699ZM15.53 16.197C15.4605 16.2668 15.3779 16.3222 15.287 16.3599C15.196 16.3977 15.0985 16.4172 15 16.4172C14.9015 16.4172 14.804 16.3977 14.713 16.3599C14.6221 16.3222 14.5395 16.2668 14.47 16.197L11.47 13.197C11.4002 13.1275 11.3448 13.0449 11.3071 12.954C11.2693 12.863 11.2499 12.7655 11.25 12.667V7.66699C11.25 7.46808 11.329 7.27731 11.4697 7.13666C11.6103 6.99601 11.8011 6.91699 12 6.91699C12.1989 6.91699 12.3897 6.99601 12.5303 7.13666C12.671 7.27731 12.75 7.46808 12.75 7.66699V12.356L15.53 15.137C15.5997 15.2066 15.6549 15.2892 15.6926 15.3801C15.7304 15.4711 15.7498 15.5685 15.7498 15.667C15.7498 15.7654 15.7304 15.8629 15.6926 15.9539C15.6549 16.0448 15.5997 16.1274 15.53 16.197Z" fill="#DD2B1C"/>
</svg>
